<svg width="266" height="52" viewBox="0 0 266 52" fill="none" xmlns="http://www.w3.org/2000/svg">
<path d="M11.9584 4.3649C17.6317 0.92244 23.7011 -0.186529 30.1921 0.902837C31.3114 1.09068 31.3139 1.07942 31.3139 2.18344C31.3142 10.0559 31.312 17.9284 31.3164 25.8008C31.3172 27.2743 32.0007 28.3224 33.2361 28.8008C35.0487 29.5028 37.031 28.3911 37.3482 26.4803C37.4082 26.1189 37.4067 25.7447 37.4068 25.3764C37.41 18.3812 37.4092 11.386 37.4093 4.39086C37.4093 4.10066 37.4093 3.81046 37.4093 3.28253C38.6006 4.04118 39.664 4.6088 40.6043 5.33435C49.0512 11.8523 52.4427 20.374 50.7779 30.8873C50.6773 31.5227 50.4023 31.6873 49.7755 31.6857C41.7446 31.6648 33.7137 31.6708 25.6828 31.6736C24.4684 31.674 23.5264 32.1944 22.9243 33.2416C22.3439 34.2512 22.4038 35.2961 22.9927 36.2739C23.617 37.3106 24.5927 37.7543 25.803 37.7532C32.9519 37.7471 40.1008 37.7503 47.2497 37.7504C47.5482 37.7504 47.8468 37.7504 48.2906 37.7504C48.1345 38.0845 48.0404 38.3258 47.9146 38.5495C42.6238 47.9614 31.583 53.0824 20.9415 51.0634C19.868 50.8597 19.8679 50.8597 19.8679 49.7946C19.8681 42.1299 19.8696 34.4652 19.8653 26.8006C19.8651 26.3635 19.8587 25.9196 19.7857 25.4905C19.52 23.9301 18.1413 22.8531 16.6109 22.9789C15.0043 23.1109 13.7949 24.3561 13.7883 25.9531C13.7724 29.8084 13.7824 33.6639 13.7821 37.5193C13.7819 40.8899 13.7821 44.2606 13.7821 47.6312C13.7821 47.8966 13.7821 48.1621 13.7821 48.6354C13.0557 48.2217 12.4804 47.9409 11.9544 47.5876C3.08581 41.6306 -0.848719 33.3463 0.152259 22.7499C0.215024 22.0855 0.337697 21.4208 0.507376 20.7758C0.557129 20.5866 0.845288 20.4167 1.06151 20.327C1.23968 20.2531 1.47302 20.3101 1.68191 20.3101C9.57355 20.3099 17.4652 20.3141 25.3568 20.3071C27.8823 20.3048 29.412 17.9029 28.2221 15.8025C27.6123 14.726 26.6445 14.2293 25.3972 14.2303C18.5268 14.2362 11.6565 14.2329 4.7861 14.2328C4.19441 14.2328 3.60272 14.2328 2.84995 14.2328C5.04677 10.0292 8.06035 6.82942 11.9584 4.3649ZM48.4665 28.1295C48.492 27.0701 48.5174 26.0108 48.543 24.9514C48.5523 24.5665 48.4141 24.3615 47.9764 24.3638C45.5192 24.3767 43.0618 24.3607 40.6049 24.39C40.4295 24.3921 40.1051 24.68 40.1076 24.8309C40.1303 26.2468 40.016 27.629 39.2561 28.9682C39.576 28.9918 39.7758 29.0191 39.9756 29.0193C42.5256 29.0221 45.0758 29.002 47.6254 29.0349C48.2381 29.0428 48.4803 28.8305 48.4665 28.1295ZM23.9577 8.74334C23.9584 9.50347 23.93 10.2655 23.9799 11.0224C23.9925 11.2133 24.256 11.5462 24.4027 11.5454C25.823 11.5377 27.2182 11.6146 28.5155 12.37C28.5739 12.2094 28.6298 12.1271 28.63 12.0447C28.6359 9.30369 28.6324 6.56264 28.6423 3.82163C28.6438 3.40416 28.3967 3.3204 28.0656 3.30795C26.956 3.26623 25.8457 3.23982 24.7369 3.18296C24.1487 3.1528 23.9266 3.35591 23.9438 3.97529C23.9865 5.51743 23.9578 7.06152 23.9577 8.74334ZM7.87124 27.6C8.70628 27.5998 9.54201 27.5792 10.3761 27.6069C10.8921 27.6241 11.1529 27.4902 11.114 26.914C11.0274 25.6293 11.1785 24.3795 11.8087 23.2224C11.835 23.1743 11.7984 23.0922 11.7905 23.0203C11.7166 23.0008 11.6517 22.9687 11.5869 22.9686C8.82667 22.9637 6.06646 22.9677 3.30634 22.9526C2.89805 22.9504 2.77715 23.146 2.76454 23.4939C2.72276 24.6453 2.687 25.7971 2.63457 26.948C2.61093 27.467 2.85221 27.6159 3.34815 27.6078C4.80908 27.5842 6.27065 27.5998 7.87124 27.6ZM23.6843 40.0607C23.3477 39.9306 23.0111 39.8007 22.6424 39.6582C22.5994 39.8188 22.5572 39.9032 22.557 39.9877C22.5515 42.7069 22.5564 45.4262 22.5419 48.1453C22.5395 48.6043 22.814 48.6856 23.1614 48.6971C24.2714 48.7338 25.3823 48.7482 26.4919 48.7924C27.0256 48.8137 27.2204 48.6074 27.2151 48.0656C27.1926 45.7613 27.192 43.4566 27.215 41.1524C27.2205 40.5942 27.0533 40.4014 26.4686 40.3827C25.5738 40.3542 24.6831 40.1994 23.6843 40.0607ZM6.61924 35.2654C7.82584 35.2654 9.03372 35.2323 10.2385 35.2787C10.8886 35.3037 11.1521 35.1356 11.1196 34.4427C11.0666 33.3143 11.0788 32.1807 11.116 31.051C11.1354 30.4648 10.9767 30.2389 10.3417 30.2494C8.16114 30.2857 5.9796 30.262 3.79845 30.2655C3.57725 30.2658 3.3561 30.2953 2.99289 30.3214C3.30387 31.4146 3.54865 32.4193 3.87647 33.3965C4.50562 35.2719 4.52516 35.2654 6.61924 35.2654ZM21.2931 9.71071C21.2931 7.7141 21.2931 5.7175 21.2931 3.77116C21.1477 3.70262 21.0986 3.6575 21.0659 3.6672C19.5635 4.11291 18.0587 4.55138 16.5679 5.0329C16.4268 5.07846 16.2965 5.39685 16.2942 5.59011C16.2732 7.38604 16.2905 9.18238 16.2745 10.9784C16.2705 11.4305 16.449 11.5892 16.8905 11.5798C17.7698 11.5612 18.6499 11.5757 19.5297 11.5758C21.2931 11.5761 21.2931 11.5759 21.2931 9.71071ZM29.9093 48.1107C30.098 48.169 30.3138 48.3179 30.4713 48.2714C31.8224 47.8727 33.1691 47.4564 34.4995 46.9948C34.6849 46.9304 34.886 46.5929 34.8897 46.3785C34.9208 44.5831 34.8974 42.7867 34.9143 40.9909C34.9186 40.5371 34.7461 40.388 34.3015 40.3952C33.0749 40.4148 31.8469 40.4287 30.6212 40.3896C30.0241 40.3706 29.8771 40.6025 29.8831 41.1538C29.9077 43.433 29.8962 45.7127 29.9093 48.1107ZM40.0806 19.9626C40.0806 20.2849 40.1145 20.6116 40.0737 20.9288C39.9901 21.5778 40.2655 21.7417 40.8905 21.729C42.7417 21.6912 44.5941 21.7155 46.4461 21.7155C46.9731 21.7155 47.5001 21.7155 48.1034 21.7155C47.8566 19.9904 47.3371 18.4514 46.6572 16.9651C46.5928 16.8242 46.2742 16.7319 46.0725 16.7299C44.267 16.712 42.4611 16.7313 40.6556 16.7116C40.1767 16.7064 40.0668 16.9175 40.0762 17.3378C40.0947 18.1663 40.081 18.9955 40.0806 19.9626ZM25.2015 29.0094C25.3869 29.0123 25.5742 29.0331 25.7576 29.0152C26.992 28.8943 27.9052 28.2905 28.3866 27.1475C28.8719 25.9952 28.6485 24.9068 27.8281 23.9902C27.0277 23.0959 26.0031 22.7545 24.808 23.0783C23.4332 23.4509 22.5262 24.6475 22.5496 26.0414C22.5744 27.522 23.5332 28.6393 25.2015 29.0094ZM8.28993 37.9106C7.58899 37.9106 6.88805 37.9106 6.00005 37.9106C7.40433 40.1893 8.9844 42.0116 10.9454 43.5962C11.0371 43.4012 11.0895 43.3416 11.0897 43.2818C11.0977 41.6491 11.1149 40.0162 11.0809 38.3843C11.0775 38.2239 10.7634 37.9488 10.5776 37.9347C9.86484 37.8807 9.1456 37.9115 8.28993 37.9106ZM13.61 9.98416C13.61 8.89191 13.61 7.79967 13.61 6.50287C11.309 7.90945 9.48708 9.48671 7.99413 11.4794C9.4011 11.5797 10.7598 11.5886 12.1183 11.5774C13.7924 11.5637 13.5924 11.8 13.61 9.98416ZM43.0856 11.1889C42.1628 10.249 41.24 9.30915 40.3172 8.36925C40.2426 8.41692 40.168 8.46459 40.0933 8.51226C40.0933 10.2532 40.0825 11.9943 40.1183 13.7344C40.1207 13.8471 40.4801 14.0425 40.6767 14.0466C41.9961 14.0741 43.3165 14.0628 44.6364 14.0556C44.7599 14.0549 44.8831 13.9957 45.1539 13.9253C44.4439 12.9834 43.7962 12.1241 43.0856 11.1889ZM42.9527 40.4061C41.375 40.4042 39.7972 40.4153 38.2198 40.3927C37.7414 40.3858 37.5451 40.5417 37.5728 41.0286C37.6029 41.5576 37.5788 42.0898 37.5787 42.6205C37.5785 43.5077 37.5786 44.3948 37.5786 45.2424C37.7154 45.2855 37.7442 45.3049 37.758 45.2974C39.8394 44.1575 41.5286 42.5565 43.0782 40.7957C43.1376 40.7281 43.0668 40.5471 42.9527 40.4061Z" fill="#B0334B"/>
<path d="M34.2639 33.3527C39.5273 33.3527 44.7211 33.3527 50.0084 33.3527C49.9291 34.3174 49.6025 35.1329 49.1479 35.895C49.0788 36.0107 48.7658 36.016 48.5656 36.0161C40.9556 36.0217 33.3456 36.0227 25.7356 36.0183C24.841 36.0177 24.2686 35.4986 24.2562 34.7202C24.2435 33.9255 24.8313 33.3664 25.7723 33.3609C28.5795 33.3445 31.3869 33.3536 34.2639 33.3527Z" fill="#AF324A"/>
<path d="M21.1721 15.9453C22.6572 15.9476 24.0731 15.9315 25.488 15.9595C26.2492 15.9746 26.7334 16.3691 26.8671 16.9996C27.0048 17.6485 26.7569 18.1494 26.1773 18.44C25.9207 18.5687 25.5963 18.6118 25.3026 18.6121C17.4593 18.6214 9.61595 18.6204 1.77262 18.6177C1.57461 18.6176 1.37663 18.5773 1.03394 18.5401C1.3542 17.7012 1.60059 16.938 1.94991 16.2247C2.0362 16.0485 2.45659 15.9584 2.72404 15.9571C6.22793 15.9397 9.73193 15.9454 13.2359 15.9453C15.8581 15.9453 18.4803 15.9453 21.1721 15.9453Z" fill="#AF324A"/>
<path d="M15.4753 32.6397C15.4754 30.5177 15.4735 28.4649 15.4783 26.4121C15.4789 26.16 15.4767 25.8978 15.542 25.6581C15.7145 25.0242 16.1715 24.682 16.816 24.6801C17.463 24.6781 17.9241 25.0224 18.084 25.6591C18.1611 25.9665 18.155 26.2992 18.1552 26.6204C18.1587 34.2088 18.158 41.7972 18.158 49.3855C18.158 49.6568 18.158 49.9281 18.158 50.3815C17.2578 50.0574 16.4668 49.8234 15.7326 49.4721C15.5519 49.3857 15.4865 48.917 15.4858 48.6238C15.4715 43.3189 15.4753 38.0139 15.4753 32.6397Z" fill="#AF324A"/>
<path d="M35.6946 22.5271C35.6937 23.6575 35.7054 24.7188 35.688 25.7796C35.6727 26.7097 35.1303 27.3009 34.3377 27.2968C33.5467 27.2926 33.0166 26.7011 33.0159 25.7556C33.0096 17.9125 33.0117 10.0694 33.014 2.22635C33.0141 2.07043 33.0482 1.91453 33.0858 1.59253C33.9169 1.90343 34.7054 2.14708 35.4356 2.50761C35.6182 2.5978 35.683 3.06391 35.6839 3.35761C35.6987 8.13263 35.6945 12.9077 35.6946 17.6828C35.6946 19.2744 35.6946 20.8661 35.6946 22.5271Z" fill="#B0334B"/>
<path d="M62.3221 27.3633L65.7948 8.12695C65.813 8.05404 65.8586 8.01758 65.9315 8.01758H69.9921C70.065 8.01758 70.1106 8.05404 70.1288 8.12695L73.4647 27.3633C73.4738 27.4544 73.4374 27.5 73.3553 27.5H70.2518C70.1607 27.5 70.1106 27.4544 70.1014 27.3633L69.8007 25.3125H65.9862L65.6854 27.3633C65.6763 27.4544 65.6307 27.5 65.5487 27.5H62.4315C62.3586 27.5 62.3221 27.4544 62.3221 27.3633ZM67.8046 14.457L66.5468 22.3184H69.2401L68.0917 14.457L67.9276 13.418L67.8046 14.457ZM78.646 27.5H75.4741C75.4012 27.5 75.3647 27.4544 75.3647 27.3633L75.4194 8.1543C75.4194 8.06315 75.4559 8.01758 75.5288 8.01758H78.6733C78.7462 8.01758 78.7827 8.06315 78.7827 8.1543V14.7852L83.1714 8.12695C83.2443 8.05404 83.3126 8.01758 83.3764 8.01758H86.5893C86.6714 8.01758 86.6896 8.05404 86.644 8.12695L81.8042 15.8516L87.2319 27.3906C87.2775 27.4635 87.2319 27.5 87.0952 27.5H83.6772C83.5861 27.5 83.5314 27.4635 83.5132 27.3906L79.726 19.1602L78.7553 20.6914V27.3633C78.7553 27.4544 78.7189 27.5 78.646 27.5ZM87.6964 27.3633L91.169 8.12695C91.1872 8.05404 91.2328 8.01758 91.3057 8.01758H95.3663C95.4392 8.01758 95.4848 8.05404 95.503 8.12695L98.8389 27.3633C98.8481 27.4544 98.8116 27.5 98.7296 27.5H95.626C95.5349 27.5 95.4848 27.4544 95.4757 27.3633L95.1749 25.3125H91.3604L91.0596 27.3633C91.0505 27.4544 91.005 27.5 90.9229 27.5H87.8057C87.7328 27.5 87.6964 27.4544 87.6964 27.3633ZM93.1788 14.457L91.921 22.3184H94.6143L93.4659 14.457L93.3018 13.418L93.1788 14.457ZM111.444 27.5H108.272C108.199 27.5 108.162 27.4544 108.162 27.3633L108.217 8.12695C108.217 8.05404 108.254 8.01758 108.326 8.01758H111.744C111.817 8.01758 111.881 8.05404 111.936 8.12695L114.492 11.8184L117.035 8.12695C117.09 8.05404 117.158 8.01758 117.241 8.01758H120.672C120.754 8.01758 120.795 8.05404 120.795 8.12695L120.85 27.3633C120.85 27.4544 120.813 27.5 120.741 27.5H117.569C117.496 27.5 117.459 27.4544 117.459 27.3633L117.432 13.0762L114.492 17.3418L111.58 13.0762L111.553 27.3633C111.553 27.4544 111.517 27.5 111.444 27.5ZM128.533 27.7734C127.54 27.7734 126.624 27.5182 125.785 27.0078C124.956 26.4974 124.286 25.8184 123.775 24.9707C123.274 24.1139 123.023 23.1751 123.023 22.1543L123.051 13.2812C123.051 12.2422 123.301 11.3079 123.803 10.4785C124.295 9.63997 124.96 8.97005 125.799 8.46875C126.637 7.95833 127.549 7.70312 128.533 7.70312C129.554 7.70312 130.47 7.95378 131.281 8.45508C132.101 8.95638 132.758 9.63086 133.25 10.4785C133.751 11.3171 134.002 12.2513 134.002 13.2812L134.029 22.1543C134.029 23.1751 133.783 24.1094 133.291 24.957C132.79 25.8138 132.124 26.4974 131.295 27.0078C130.465 27.5182 129.545 27.7734 128.533 27.7734ZM128.533 24.3965C129.098 24.3965 129.59 24.1686 130.01 23.7129C130.429 23.248 130.639 22.7285 130.639 22.1543L130.611 13.2812C130.611 12.6615 130.415 12.1374 130.023 11.709C129.631 11.2806 129.135 11.0664 128.533 11.0664C127.959 11.0664 127.467 11.276 127.057 11.6953C126.646 12.1146 126.441 12.6432 126.441 13.2812V22.1543C126.441 22.765 126.646 23.2936 127.057 23.7402C127.467 24.1777 127.959 24.3965 128.533 24.3965ZM139.58 27.5H136.408C136.335 27.5 136.298 27.4544 136.298 27.3633L136.353 8.12695C136.353 8.05404 136.389 8.01758 136.462 8.01758H139.88C139.953 8.01758 140.017 8.05404 140.072 8.12695L142.628 11.8184L145.171 8.12695C145.226 8.05404 145.294 8.01758 145.376 8.01758H148.808C148.89 8.01758 148.931 8.05404 148.931 8.12695L148.986 27.3633C148.986 27.4544 148.949 27.5 148.876 27.5H145.705C145.632 27.5 145.595 27.4544 145.595 27.3633L145.568 13.0762L142.628 17.3418L139.716 13.0762L139.689 27.3633C139.689 27.4544 139.652 27.5 139.58 27.5ZM154.796 27.5H151.624C151.533 27.5 151.487 27.4544 151.487 27.3633L151.515 8.12695C151.515 8.05404 151.551 8.01758 151.624 8.01758H154.769C154.842 8.01758 154.878 8.05404 154.878 8.12695L154.905 27.3633C154.905 27.4544 154.869 27.5 154.796 27.5ZM162.11 27.7734C161.08 27.7734 160.146 27.5273 159.307 27.0352C158.478 26.543 157.822 25.8639 157.339 24.998C156.865 24.123 156.628 23.1478 156.628 22.0723V20.7734C156.628 20.7005 156.664 20.6641 156.737 20.6641H159.909C159.982 20.6641 160.018 20.7142 160.018 20.8145V22.0723C160.018 22.7559 160.214 23.3164 160.606 23.7539C160.998 24.1823 161.499 24.3965 162.11 24.3965C162.675 24.3965 163.163 24.1641 163.573 23.6992C163.983 23.2253 164.188 22.6829 164.188 22.0723V8.1543C164.188 8.08138 164.225 8.04492 164.298 8.04492H167.442C167.515 8.04492 167.551 8.09049 167.551 8.18164L167.579 22.0723C167.579 23.0931 167.333 24.0365 166.84 24.9023C166.339 25.7773 165.678 26.4746 164.858 26.9941C164.038 27.5137 163.122 27.7734 162.11 27.7734ZM173.143 27.5H169.971C169.88 27.5 169.834 27.4544 169.834 27.3633L169.862 8.12695C169.862 8.05404 169.898 8.01758 169.971 8.01758H173.116C173.188 8.01758 173.225 8.05404 173.225 8.12695L173.252 27.3633C173.252 27.4544 173.216 27.5 173.143 27.5ZM192.447 27.5H183.396C183.323 27.5 183.287 27.4544 183.287 27.3633L183.314 8.1543C183.314 8.06315 183.36 8.01758 183.451 8.01758H186.568C186.659 8.01758 186.705 8.06315 186.705 8.1543L186.677 24.0547H192.447C192.538 24.0547 192.583 24.1003 192.583 24.1914V27.3633C192.583 27.4544 192.538 27.5 192.447 27.5ZM199.747 27.7734C198.754 27.7734 197.838 27.5182 196.999 27.0078C196.17 26.4974 195.5 25.8184 194.989 24.9707C194.488 24.1139 194.237 23.1751 194.237 22.1543L194.265 13.2812C194.265 12.2422 194.515 11.3079 195.017 10.4785C195.509 9.63997 196.174 8.97005 197.013 8.46875C197.851 7.95833 198.763 7.70312 199.747 7.70312C200.768 7.70312 201.684 7.95378 202.495 8.45508C203.316 8.95638 203.972 9.63086 204.464 10.4785C204.965 11.3171 205.216 12.2513 205.216 13.2812L205.243 22.1543C205.243 23.1751 204.997 24.1094 204.505 24.957C204.004 25.8138 203.338 26.4974 202.509 27.0078C201.679 27.5182 200.759 27.7734 199.747 27.7734ZM199.747 24.3965C200.312 24.3965 200.804 24.1686 201.224 23.7129C201.643 23.248 201.853 22.7285 201.853 22.1543L201.825 13.2812C201.825 12.6615 201.629 12.1374 201.237 11.709C200.845 11.2806 200.349 11.0664 199.747 11.0664C199.173 11.0664 198.681 11.276 198.271 11.6953C197.86 12.1146 197.655 12.6432 197.655 13.2812V22.1543C197.655 22.765 197.86 23.2936 198.271 23.7402C198.681 24.1777 199.173 24.3965 199.747 24.3965ZM212.667 27.7734C211.682 27.7734 210.771 27.5182 209.932 27.0078C209.094 26.4974 208.424 25.8138 207.923 24.957C207.43 24.0911 207.184 23.1478 207.184 22.127L207.239 8.12695C207.239 8.05404 207.275 8.01758 207.348 8.01758H210.493C210.566 8.01758 210.602 8.05404 210.602 8.12695V22.127C210.602 22.7559 210.803 23.2936 211.204 23.7402C211.605 24.1777 212.092 24.3965 212.667 24.3965C213.268 24.3965 213.77 24.1777 214.171 23.7402C214.572 23.2936 214.772 22.7559 214.772 22.127V8.12695C214.772 8.05404 214.809 8.01758 214.882 8.01758H218.026C218.099 8.01758 218.135 8.05404 218.135 8.12695L218.19 22.127C218.19 23.1569 217.944 24.1048 217.452 24.9707C216.951 25.8275 216.285 26.5111 215.456 27.0215C214.626 27.5228 213.697 27.7734 212.667 27.7734ZM223.59 27.5H220.787C220.642 27.5 220.569 27.4362 220.569 27.3086L220.541 8.23633C220.541 8.09049 220.614 8.01758 220.76 8.01758H223.289L228.02 19.0508L227.883 8.23633C227.883 8.09049 227.965 8.01758 228.129 8.01758H230.905C231.014 8.01758 231.069 8.09049 231.069 8.23633L231.096 27.3359C231.096 27.4453 231.05 27.5 230.959 27.5H228.498L223.645 17.1914L223.85 27.2812C223.85 27.4271 223.763 27.5 223.59 27.5ZM238.807 27.7734C237.795 27.7734 236.883 27.5228 236.072 27.0215C235.252 26.5202 234.591 25.8457 234.09 24.998C233.598 24.1504 233.351 23.2025 233.351 22.1543V13.2812C233.351 12.2604 233.602 11.3307 234.103 10.4922C234.596 9.64453 235.256 8.97005 236.086 8.46875C236.915 7.95833 237.822 7.70312 238.807 7.70312C239.836 7.70312 240.766 7.94922 241.596 8.44141C242.425 8.94271 243.081 9.61263 243.564 10.4512C244.057 11.2897 244.303 12.2331 244.303 13.2812V14.5664C244.303 14.6393 244.257 14.6758 244.166 14.6758H241.021C240.948 14.6758 240.912 14.6393 240.912 14.5664V13.5C240.912 12.7891 240.711 12.2012 240.31 11.7363C239.909 11.2715 239.408 11.0391 238.807 11.0391C238.269 11.0391 237.79 11.2624 237.371 11.709C236.952 12.1556 236.742 12.6797 236.742 13.2812V22.1543C236.742 22.765 236.947 23.2936 237.357 23.7402C237.767 24.1777 238.251 24.3965 238.807 24.3965C239.408 24.3965 239.909 24.1823 240.31 23.7539C240.711 23.3164 240.912 22.7832 240.912 22.1543V20.7734H238.957C238.857 20.7734 238.807 20.7279 238.807 20.6367V17.5059C238.807 17.4147 238.857 17.3691 238.957 17.3691H244.193C244.266 17.3691 244.303 17.4147 244.303 17.5059V22.1543C244.303 23.2025 244.057 24.1504 243.564 24.998C243.063 25.8457 242.402 26.5202 241.582 27.0215C240.762 27.5228 239.836 27.7734 238.807 27.7734ZM255.595 27.5H246.544C246.471 27.5 246.435 27.4544 246.435 27.3633L246.462 8.12695C246.462 8.05404 246.499 8.01758 246.572 8.01758H255.568C255.641 8.01758 255.677 8.06315 255.677 8.1543V11.2852C255.677 11.3581 255.641 11.3945 255.568 11.3945H249.826V15.7695H255.568C255.641 15.7695 255.677 15.806 255.677 15.8789L255.705 19.0508C255.705 19.1237 255.668 19.1602 255.595 19.1602H249.826V24.0547H255.595C255.668 24.0547 255.705 24.1003 255.705 24.1914V27.3906C255.705 27.4635 255.668 27.5 255.595 27.5Z" fill="#DBDBD7"/>
<path d="M68.5421 36.74H69.2771L64.0481 42.165V41.353L68.5421 36.74ZM65.5041 40.408L69.5011 45.231H68.7871L65.0911 40.751L65.5041 40.408ZM63.6841 36.74H64.2161V45.231H63.6841V36.74ZM70.2961 36.74H70.9541L73.8311 41.381H73.5931L76.4701 36.74H77.1141L73.9921 41.766V45.231H73.4461V41.766L70.2961 36.74ZM81.5277 45.371C80.8791 45.371 80.2911 45.2123 79.7637 44.895C79.2364 44.5776 78.8164 44.097 78.5037 43.453C78.1911 42.809 78.0347 41.9993 78.0347 41.024C78.0347 40.0346 78.1911 39.2133 78.5037 38.56C78.8164 37.9066 79.2364 37.419 79.7637 37.097C80.2911 36.775 80.8791 36.614 81.5277 36.614C82.1717 36.614 82.7551 36.775 83.2777 37.097C83.8051 37.4143 84.2251 37.8996 84.5377 38.553C84.8504 39.2063 85.0067 40.03 85.0067 41.024C85.0067 42.004 84.8504 42.816 84.5377 43.46C84.2251 44.104 83.8051 44.5846 83.2777 44.902C82.7551 45.2146 82.1717 45.371 81.5277 45.371ZM81.5277 44.867C82.4424 44.867 83.1587 44.545 83.6767 43.901C84.1994 43.2523 84.4607 42.2886 84.4607 41.01C84.4607 39.7406 84.1994 38.7676 83.6767 38.091C83.1587 37.4143 82.4424 37.076 81.5277 37.076C80.6131 37.076 79.8921 37.4143 79.3647 38.091C78.8421 38.7676 78.5807 39.7453 78.5807 41.024C78.5807 42.298 78.8421 43.257 79.3647 43.901C79.8921 44.545 80.6131 44.867 81.5277 44.867ZM86.0026 37.174V36.74H92.4006V37.174H89.3276L89.4466 37.055V45.231H88.9286V37.055L89.0476 37.174H86.0026ZM96.8941 45.371C96.2455 45.371 95.6575 45.2123 95.1301 44.895C94.6028 44.5776 94.1828 44.097 93.8701 43.453C93.5575 42.809 93.4011 41.9993 93.4011 41.024C93.4011 40.0346 93.5575 39.2133 93.8701 38.56C94.1828 37.9066 94.6028 37.419 95.1301 37.097C95.6575 36.775 96.2455 36.614 96.8941 36.614C97.5381 36.614 98.1215 36.775 98.6441 37.097C99.1715 37.4143 99.5915 37.8996 99.9041 38.553C100.217 39.2063 100.373 40.03 100.373 41.024C100.373 42.004 100.217 42.816 99.9041 43.46C99.5915 44.104 99.1715 44.5846 98.6441 44.902C98.1215 45.2146 97.5381 45.371 96.8941 45.371ZM96.8941 44.867C97.8088 44.867 98.5251 44.545 99.0431 43.901C99.5658 43.2523 99.8271 42.2886 99.8271 41.01C99.8271 39.7406 99.5658 38.7676 99.0431 38.091C98.5251 37.4143 97.8088 37.076 96.8941 37.076C95.9795 37.076 95.2585 37.4143 94.7311 38.091C94.2085 38.7676 93.9471 39.7453 93.9471 41.024C93.9471 42.298 94.2085 43.257 94.7311 43.901C95.2585 44.545 95.9795 44.867 96.8941 44.867ZM106.065 45.231V36.74H106.583V45.231H106.065ZM109.783 36.74H110.574L115.383 44.755H115.313V36.74H115.831V45.231H115.089L110.238 37.139H110.301V45.231H109.783V36.74ZM121.495 45.371C120.954 45.371 120.457 45.2683 120.004 45.063C119.556 44.8576 119.197 44.566 118.926 44.188C118.66 43.8053 118.53 43.348 118.534 42.816H119.024C119.024 43.2873 119.139 43.677 119.367 43.985C119.596 44.2883 119.897 44.5146 120.27 44.664C120.644 44.8086 121.047 44.881 121.481 44.881C121.999 44.881 122.438 44.7923 122.797 44.615C123.161 44.433 123.437 44.202 123.623 43.922C123.815 43.6373 123.91 43.341 123.91 43.033C123.91 42.5896 123.773 42.2233 123.497 41.934C123.227 41.64 122.846 41.4206 122.356 41.276L121.04 40.905C120.284 40.6576 119.72 40.38 119.346 40.072C118.973 39.764 118.786 39.3253 118.786 38.756C118.786 38.1306 119.017 37.6173 119.479 37.216C119.946 36.8146 120.623 36.614 121.509 36.614C122.284 36.614 122.895 36.7913 123.343 37.146C123.796 37.496 124.06 37.9416 124.134 38.483H123.616C123.542 38.0256 123.325 37.6803 122.965 37.447C122.606 37.209 122.121 37.09 121.509 37.09C120.814 37.09 120.28 37.251 119.906 37.573C119.533 37.895 119.346 38.3033 119.346 38.798C119.346 39.19 119.463 39.5026 119.696 39.736C119.934 39.9646 120.31 40.1606 120.823 40.324L122.468 40.814C123.056 40.9726 123.537 41.2293 123.91 41.584C124.284 41.9386 124.47 42.4216 124.47 43.033C124.47 43.4203 124.358 43.7936 124.134 44.153C123.91 44.5076 123.577 44.7993 123.133 45.028C122.695 45.2566 122.149 45.371 121.495 45.371ZM127.159 45.231V36.74H129.602C130.512 36.74 131.191 36.978 131.639 37.454C132.087 37.9253 132.311 38.5296 132.311 39.267C132.311 39.9996 132.087 40.5993 131.639 41.066C131.191 41.528 130.512 41.759 129.602 41.759H127.691V45.231H127.159ZM127.691 41.304H129.602C130.311 41.304 130.85 41.1266 131.219 40.772C131.592 40.4173 131.779 39.9156 131.779 39.267C131.779 38.6136 131.592 38.1026 131.219 37.734C130.85 37.3606 130.311 37.174 129.602 37.174H127.691V41.304ZM134.692 45.231V36.74H135.21V45.231H134.692ZM138.41 45.231V36.74H141.175C142.095 36.74 142.778 36.9663 143.226 37.419C143.674 37.867 143.898 38.4456 143.898 39.155C143.898 39.869 143.674 40.4523 143.226 40.905C142.778 41.353 142.095 41.577 141.175 41.577H138.928V45.231H138.41ZM143.352 45.231L140.72 41.514H141.322L144.01 45.231H143.352ZM138.928 41.15H141.182C141.892 41.15 142.433 40.9656 142.806 40.597C143.18 40.2236 143.366 39.7383 143.366 39.141C143.366 38.5296 143.177 38.049 142.799 37.699C142.426 37.349 141.885 37.174 141.175 37.174H138.928V41.15ZM146.667 45.231V36.74H151.658V37.174H147.185V40.702H151.406V41.143H147.185V44.783H151.658V45.231H146.667ZM154.351 36.74H156.556C157.405 36.74 158.136 36.915 158.747 37.265C159.358 37.615 159.827 38.1073 160.154 38.742C160.485 39.3766 160.651 40.121 160.651 40.975C160.651 41.8196 160.485 42.5616 160.154 43.201C159.827 43.8403 159.358 44.3396 158.747 44.699C158.136 45.0536 157.405 45.231 156.556 45.231H154.351V36.74ZM154.869 37.16V44.825H156.556C157.298 44.825 157.935 44.657 158.467 44.321C158.999 43.985 159.407 43.5276 159.692 42.949C159.977 42.3656 160.119 41.7076 160.119 40.975C160.119 40.2423 159.977 39.589 159.692 39.015C159.407 38.441 158.999 37.9883 158.467 37.657C157.935 37.3256 157.298 37.16 156.556 37.16H154.869Z" fill="#DBDBD7"/>
</svg>
