<svg width="328" height="61" viewBox="0 0 328 61" fill="none" xmlns="http://www.w3.org/2000/svg">
<path d="M76.6581 27.8438L80.6268 5.85938C80.6477 5.77604 80.6997 5.73438 80.7831 5.73438H85.4237C85.507 5.73438 85.5591 5.77604 85.58 5.85938L89.3925 27.8438C89.4029 27.9479 89.3612 28 89.2675 28H85.7206C85.6164 28 85.5591 27.9479 85.5487 27.8438L85.205 25.5H80.8456L80.5018 27.8438C80.4914 27.9479 80.4393 28 80.3456 28H76.7831C76.6997 28 76.6581 27.9479 76.6581 27.8438ZM82.9237 13.0938L81.4862 22.0781H84.5643L83.2518 13.0938L83.0643 11.9062L82.9237 13.0938ZM95.2925 28H91.6675C91.5841 28 91.5425 27.9479 91.5425 27.8438L91.605 5.89062C91.605 5.78646 91.6466 5.73438 91.73 5.73438H95.3237C95.407 5.73438 95.4487 5.78646 95.4487 5.89062V13.4688L100.464 5.85938C100.548 5.77604 100.626 5.73438 100.699 5.73438H104.371C104.464 5.73438 104.485 5.77604 104.433 5.85938L98.9018 14.6875L105.105 27.875C105.157 27.9583 105.105 28 104.949 28H101.042C100.938 28 100.876 27.9583 100.855 27.875L96.5268 18.4688L95.4175 20.2188V27.8438C95.4175 27.9479 95.3758 28 95.2925 28ZM105.614 27.8438L109.583 5.85938C109.604 5.77604 109.656 5.73438 109.739 5.73438H114.38C114.463 5.73438 114.515 5.77604 114.536 5.85938L118.349 27.8438C118.359 27.9479 118.317 28 118.224 28H114.677C114.573 28 114.515 27.9479 114.505 27.8438L114.161 25.5H109.802L109.458 27.8438C109.448 27.9479 109.396 28 109.302 28H105.739C105.656 28 105.614 27.9479 105.614 27.8438ZM111.88 13.0938L110.442 22.0781H113.521L112.208 13.0938L112.021 11.9062L111.88 13.0938ZM132.711 28H129.086C129.003 28 128.961 27.9479 128.961 27.8438L129.024 5.85938C129.024 5.77604 129.065 5.73438 129.149 5.73438H133.055C133.138 5.73438 133.211 5.77604 133.274 5.85938L136.196 10.0781L139.102 5.85938C139.164 5.77604 139.242 5.73438 139.336 5.73438H143.258C143.352 5.73438 143.399 5.77604 143.399 5.85938L143.461 27.8438C143.461 27.9479 143.42 28 143.336 28H139.711C139.628 28 139.586 27.9479 139.586 27.8438L139.555 11.5156L136.196 16.3906L132.867 11.5156L132.836 27.8438C132.836 27.9479 132.795 28 132.711 28ZM152.221 28.3125C151.085 28.3125 150.038 28.0208 149.08 27.4375C148.132 26.8542 147.366 26.0781 146.783 25.1094C146.21 24.1302 145.924 23.0573 145.924 21.8906L145.955 11.75C145.955 10.5625 146.241 9.49479 146.814 8.54688C147.377 7.58854 148.137 6.82292 149.096 6.25C150.054 5.66667 151.096 5.375 152.221 5.375C153.387 5.375 154.434 5.66146 155.361 6.23438C156.299 6.80729 157.049 7.57812 157.611 8.54688C158.184 9.50521 158.471 10.5729 158.471 11.75L158.502 21.8906C158.502 23.0573 158.221 24.125 157.658 25.0938C157.085 26.0729 156.325 26.8542 155.377 27.4375C154.429 28.0208 153.377 28.3125 152.221 28.3125ZM152.221 24.4531C152.866 24.4531 153.429 24.1927 153.908 23.6719C154.387 23.1406 154.627 22.5469 154.627 21.8906L154.596 11.75C154.596 11.0417 154.372 10.4427 153.924 9.95312C153.476 9.46354 152.908 9.21875 152.221 9.21875C151.564 9.21875 151.002 9.45833 150.533 9.9375C150.064 10.4167 149.83 11.0208 149.83 11.75V21.8906C149.83 22.5885 150.064 23.1927 150.533 23.7031C151.002 24.2031 151.564 24.4531 152.221 24.4531ZM164.824 28H161.199C161.115 28 161.074 27.9479 161.074 27.8438L161.136 5.85938C161.136 5.77604 161.178 5.73438 161.261 5.73438H165.167C165.251 5.73438 165.324 5.77604 165.386 5.85938L168.308 10.0781L171.214 5.85938C171.277 5.77604 171.355 5.73438 171.449 5.73438H175.371C175.464 5.73438 175.511 5.77604 175.511 5.85938L175.574 27.8438C175.574 27.9479 175.532 28 175.449 28H171.824C171.74 28 171.699 27.9479 171.699 27.8438L171.667 11.5156L168.308 16.3906L164.98 11.5156L164.949 27.8438C164.949 27.9479 164.907 28 164.824 28ZM182.192 28H178.567C178.463 28 178.411 27.9479 178.411 27.8438L178.442 5.85938C178.442 5.77604 178.484 5.73438 178.567 5.73438H182.161C182.245 5.73438 182.286 5.77604 182.286 5.85938L182.317 27.8438C182.317 27.9479 182.276 28 182.192 28ZM190.53 28.3125C189.353 28.3125 188.285 28.0312 187.327 27.4688C186.379 26.9062 185.629 26.1302 185.077 25.1406C184.535 24.1406 184.264 23.026 184.264 21.7969V20.3125C184.264 20.2292 184.306 20.1875 184.389 20.1875H188.014C188.098 20.1875 188.139 20.2448 188.139 20.3594V21.7969C188.139 22.5781 188.363 23.2188 188.811 23.7188C189.259 24.2083 189.832 24.4531 190.53 24.4531C191.176 24.4531 191.733 24.1875 192.202 23.6562C192.671 23.1146 192.905 22.4948 192.905 21.7969V5.89062C192.905 5.80729 192.947 5.76562 193.03 5.76562H196.624C196.707 5.76562 196.749 5.81771 196.749 5.92188L196.78 21.7969C196.78 22.9635 196.499 24.0417 195.936 25.0312C195.363 26.0312 194.608 26.8281 193.671 27.4219C192.733 28.0156 191.686 28.3125 190.53 28.3125ZM203.117 28H199.492C199.388 28 199.336 27.9479 199.336 27.8438L199.367 5.85938C199.367 5.77604 199.409 5.73438 199.492 5.73438H203.086C203.17 5.73438 203.211 5.77604 203.211 5.85938L203.242 27.8438C203.242 27.9479 203.201 28 203.117 28ZM225.136 28H214.792C214.709 28 214.667 27.9479 214.667 27.8438L214.699 5.89062C214.699 5.78646 214.751 5.73438 214.855 5.73438H218.417C218.522 5.73438 218.574 5.78646 218.574 5.89062L218.542 24.0625H225.136C225.24 24.0625 225.292 24.1146 225.292 24.2188V27.8438C225.292 27.9479 225.24 28 225.136 28ZM233.458 28.3125C232.323 28.3125 231.276 28.0208 230.317 27.4375C229.37 26.8542 228.604 26.0781 228.021 25.1094C227.448 24.1302 227.161 23.0573 227.161 21.8906L227.192 11.75C227.192 10.5625 227.479 9.49479 228.052 8.54688C228.614 7.58854 229.375 6.82292 230.333 6.25C231.291 5.66667 232.333 5.375 233.458 5.375C234.625 5.375 235.672 5.66146 236.599 6.23438C237.536 6.80729 238.286 7.57812 238.849 8.54688C239.422 9.50521 239.708 10.5729 239.708 11.75L239.739 21.8906C239.739 23.0573 239.458 24.125 238.896 25.0938C238.323 26.0729 237.562 26.8542 236.614 27.4375C235.666 28.0208 234.614 28.3125 233.458 28.3125ZM233.458 24.4531C234.104 24.4531 234.666 24.1927 235.146 23.6719C235.625 23.1406 235.864 22.5469 235.864 21.8906L235.833 11.75C235.833 11.0417 235.609 10.4427 235.161 9.95312C234.713 9.46354 234.146 9.21875 233.458 9.21875C232.802 9.21875 232.239 9.45833 231.771 9.9375C231.302 10.4167 231.067 11.0208 231.067 11.75V21.8906C231.067 22.5885 231.302 23.1927 231.771 23.7031C232.239 24.2031 232.802 24.4531 233.458 24.4531ZM248.202 28.3125C247.077 28.3125 246.035 28.0208 245.077 27.4375C244.118 26.8542 243.353 26.0729 242.78 25.0938C242.217 24.1042 241.936 23.026 241.936 21.8594L241.999 5.85938C241.999 5.77604 242.04 5.73438 242.124 5.73438H245.717C245.801 5.73438 245.842 5.77604 245.842 5.85938V21.8594C245.842 22.5781 246.072 23.1927 246.53 23.7031C246.988 24.2031 247.546 24.4531 248.202 24.4531C248.889 24.4531 249.462 24.2031 249.921 23.7031C250.379 23.1927 250.608 22.5781 250.608 21.8594V5.85938C250.608 5.77604 250.65 5.73438 250.733 5.73438H254.327C254.41 5.73438 254.452 5.77604 254.452 5.85938L254.514 21.8594C254.514 23.0365 254.233 24.1198 253.671 25.1094C253.098 26.0885 252.337 26.8698 251.389 27.4531C250.441 28.026 249.379 28.3125 248.202 28.3125ZM260.664 28H257.461C257.295 28 257.211 27.9271 257.211 27.7812L257.18 5.98438C257.18 5.81771 257.263 5.73438 257.43 5.73438H260.321L265.727 18.3438L265.571 5.98438C265.571 5.81771 265.664 5.73438 265.852 5.73438H269.024C269.149 5.73438 269.211 5.81771 269.211 5.98438L269.242 27.8125C269.242 27.9375 269.19 28 269.086 28H266.274L260.727 16.2188L260.961 27.75C260.961 27.9167 260.862 28 260.664 28ZM278.033 28.3125C276.877 28.3125 275.835 28.026 274.908 27.4531C273.971 26.8802 273.215 26.1094 272.642 25.1406C272.08 24.1719 271.799 23.0885 271.799 21.8906V11.75C271.799 10.5833 272.085 9.52083 272.658 8.5625C273.221 7.59375 273.976 6.82292 274.924 6.25C275.872 5.66667 276.908 5.375 278.033 5.375C279.21 5.375 280.273 5.65625 281.221 6.21875C282.168 6.79167 282.918 7.55729 283.471 8.51562C284.033 9.47396 284.314 10.5521 284.314 11.75V13.2188C284.314 13.3021 284.262 13.3438 284.158 13.3438H280.564C280.481 13.3438 280.439 13.3021 280.439 13.2188V12C280.439 11.1875 280.21 10.5156 279.752 9.98438C279.293 9.45312 278.721 9.1875 278.033 9.1875C277.418 9.1875 276.872 9.44271 276.392 9.95312C275.913 10.4635 275.674 11.0625 275.674 11.75V21.8906C275.674 22.5885 275.908 23.1927 276.377 23.7031C276.846 24.2031 277.398 24.4531 278.033 24.4531C278.721 24.4531 279.293 24.2083 279.752 23.7188C280.21 23.2188 280.439 22.6094 280.439 21.8906V20.3125H278.205C278.09 20.3125 278.033 20.2604 278.033 20.1562V16.5781C278.033 16.474 278.09 16.4219 278.205 16.4219H284.189C284.273 16.4219 284.314 16.474 284.314 16.5781V21.8906C284.314 23.0885 284.033 24.1719 283.471 25.1406C282.898 26.1094 282.142 26.8802 281.205 27.4531C280.267 28.026 279.21 28.3125 278.033 28.3125ZM297.199 28H286.855C286.772 28 286.73 27.9479 286.73 27.8438L286.761 5.85938C286.761 5.77604 286.803 5.73438 286.886 5.73438H297.167C297.251 5.73438 297.292 5.78646 297.292 5.89062V9.46875C297.292 9.55208 297.251 9.59375 297.167 9.59375H290.605V14.5938H297.167C297.251 14.5938 297.292 14.6354 297.292 14.7188L297.324 18.3438C297.324 18.4271 297.282 18.4688 297.199 18.4688H290.605V24.0625H297.199C297.282 24.0625 297.324 24.1146 297.324 24.2188V27.875C297.324 27.9583 297.282 28 297.199 28Z" fill="#DBDBD7"/>
<path d="M83.7666 40.296H84.6066L78.6306 46.496V45.568L83.7666 40.296ZM80.2946 44.488L84.8626 50H84.0466L79.8226 44.88L80.2946 44.488ZM78.2146 40.296H78.8226V50H78.2146V40.296ZM85.7497 40.296H86.5017L89.7897 45.6H89.5177L92.8057 40.296H93.5417L89.9737 46.04V50H89.3497V46.04L85.7497 40.296ZM98.5645 50.16C97.8231 50.16 97.1511 49.9787 96.5485 49.616C95.9458 49.2533 95.4658 48.704 95.1085 47.968C94.7511 47.232 94.5725 46.3067 94.5725 45.192C94.5725 44.0613 94.7511 43.1227 95.1085 42.376C95.4658 41.6293 95.9458 41.072 96.5485 40.704C97.1511 40.336 97.8231 40.152 98.5645 40.152C99.3005 40.152 99.9671 40.336 100.564 40.704C101.167 41.0667 101.647 41.6213 102.004 42.368C102.362 43.1147 102.54 44.056 102.54 45.192C102.54 46.312 102.362 47.24 102.004 47.976C101.647 48.712 101.167 49.2613 100.564 49.624C99.9671 49.9813 99.3005 50.16 98.5645 50.16ZM98.5645 49.584C99.6098 49.584 100.428 49.216 101.02 48.48C101.618 47.7387 101.916 46.6373 101.916 45.176C101.916 43.7253 101.618 42.6133 101.02 41.84C100.428 41.0667 99.6098 40.68 98.5645 40.68C97.5191 40.68 96.6951 41.0667 96.0925 41.84C95.4951 42.6133 95.1965 43.7307 95.1965 45.192C95.1965 46.648 95.4951 47.744 96.0925 48.48C96.6951 49.216 97.5191 49.584 98.5645 49.584ZM103.657 40.792V40.296H110.969V40.792H107.457L107.593 40.656V50H107.001V40.656L107.137 40.792H103.657ZM116.083 50.16C115.342 50.16 114.67 49.9787 114.067 49.616C113.465 49.2533 112.985 48.704 112.627 47.968C112.27 47.232 112.091 46.3067 112.091 45.192C112.091 44.0613 112.27 43.1227 112.627 42.376C112.985 41.6293 113.465 41.072 114.067 40.704C114.67 40.336 115.342 40.152 116.083 40.152C116.819 40.152 117.486 40.336 118.083 40.704C118.686 41.0667 119.166 41.6213 119.523 42.368C119.881 43.1147 120.059 44.056 120.059 45.192C120.059 46.312 119.881 47.24 119.523 47.976C119.166 48.712 118.686 49.2613 118.083 49.624C117.486 49.9813 116.819 50.16 116.083 50.16ZM116.083 49.584C117.129 49.584 117.947 49.216 118.539 48.48C119.137 47.7387 119.435 46.6373 119.435 45.176C119.435 43.7253 119.137 42.6133 118.539 41.84C117.947 41.0667 117.129 40.68 116.083 40.68C115.038 40.68 114.214 41.0667 113.611 41.84C113.014 42.6133 112.715 43.7307 112.715 45.192C112.715 46.648 113.014 47.744 113.611 48.48C114.214 49.216 115.038 49.584 116.083 49.584ZM126.521 50V40.296H127.113V50H126.521ZM130.749 40.296H131.653L137.149 49.456H137.069V40.296H137.661V50H136.813L131.269 40.752H131.341V50H130.749V40.296ZM144.113 50.16C143.495 50.16 142.927 50.0427 142.409 49.808C141.897 49.5733 141.487 49.24 141.177 48.808C140.873 48.3707 140.724 47.848 140.729 47.24H141.289C141.289 47.7787 141.42 48.224 141.681 48.576C141.943 48.9227 142.287 49.1813 142.713 49.352C143.14 49.5173 143.601 49.6 144.097 49.6C144.689 49.6 145.191 49.4987 145.601 49.296C146.017 49.088 146.332 48.824 146.545 48.504C146.764 48.1787 146.873 47.84 146.873 47.488C146.873 46.9813 146.716 46.5627 146.401 46.232C146.092 45.896 145.657 45.6453 145.097 45.48L143.593 45.056C142.729 44.7733 142.084 44.456 141.657 44.104C141.231 43.752 141.017 43.2507 141.017 42.6C141.017 41.8853 141.281 41.2987 141.809 40.84C142.343 40.3813 143.116 40.152 144.129 40.152C145.015 40.152 145.713 40.3547 146.225 40.76C146.743 41.16 147.044 41.6693 147.129 42.288H146.537C146.452 41.7653 146.204 41.3707 145.793 41.104C145.383 40.832 144.828 40.696 144.129 40.696C143.335 40.696 142.724 40.88 142.297 41.248C141.871 41.616 141.657 42.0827 141.657 42.648C141.657 43.096 141.791 43.4533 142.057 43.72C142.329 43.9813 142.759 44.2053 143.345 44.392L145.225 44.952C145.897 45.1333 146.447 45.4267 146.873 45.832C147.3 46.2373 147.513 46.7893 147.513 47.488C147.513 47.9307 147.385 48.3573 147.129 48.768C146.873 49.1733 146.492 49.5067 145.985 49.768C145.484 50.0293 144.86 50.16 144.113 50.16ZM150.564 50V40.296H153.356C154.396 40.296 155.172 40.568 155.684 41.112C156.196 41.6507 156.452 42.3413 156.452 43.184C156.452 44.0213 156.196 44.7067 155.684 45.24C155.172 45.768 154.396 46.032 153.356 46.032H151.172V50H150.564ZM151.172 45.512H153.356C154.167 45.512 154.783 45.3093 155.204 44.904C155.631 44.4987 155.844 43.9253 155.844 43.184C155.844 42.4373 155.631 41.8533 155.204 41.432C154.783 41.0053 154.167 40.792 153.356 40.792H151.172V45.512ZM159.152 50V40.296H159.744V50H159.152ZM163.38 50V40.296H166.54C167.591 40.296 168.372 40.5547 168.884 41.072C169.396 41.584 169.652 42.2453 169.652 43.056C169.652 43.872 169.396 44.5387 168.884 45.056C168.372 45.568 167.591 45.824 166.54 45.824H163.972V50H163.38ZM169.028 50L166.02 45.752H166.708L169.78 50H169.028ZM163.972 45.336H166.548C167.359 45.336 167.978 45.1253 168.404 44.704C168.831 44.2773 169.044 43.7227 169.044 43.04C169.044 42.3413 168.828 41.792 168.396 41.392C167.97 40.992 167.351 40.792 166.54 40.792H163.972V45.336ZM172.795 50V40.296H178.499V40.792H173.387V44.824H178.211V45.328H173.387V49.488H178.499V50H172.795ZM181.555 40.296H184.075C185.046 40.296 185.881 40.496 186.579 40.896C187.278 41.296 187.814 41.8587 188.187 42.584C188.566 43.3093 188.755 44.16 188.755 45.136C188.755 46.1013 188.566 46.9493 188.187 47.68C187.814 48.4107 187.278 48.9813 186.579 49.392C185.881 49.7973 185.046 50 184.075 50H181.555V40.296ZM182.147 40.776V49.536H184.075C184.923 49.536 185.651 49.344 186.259 48.96C186.867 48.576 187.334 48.0533 187.659 47.392C187.985 46.7253 188.147 45.9733 188.147 45.136C188.147 44.2987 187.985 43.552 187.659 42.896C187.334 42.24 186.867 41.7227 186.259 41.344C185.651 40.9653 184.923 40.776 184.075 40.776H182.147Z" fill="#DBDBD7"/>
<path d="M14.0168 4.55454C20.6666 0.497819 27.7807 -0.809032 35.389 0.474718C36.7009 0.696075 36.7039 0.682811 36.7039 1.98382C36.7042 11.261 36.7016 20.5382 36.7068 29.8154C36.7077 31.5519 37.5089 32.787 38.9569 33.3507C41.0815 34.1779 43.4051 32.8679 43.7768 30.6162C43.8471 30.1902 43.8453 29.7493 43.8455 29.3153C43.8493 21.0719 43.8484 12.8285 43.8484 4.58513C43.8484 4.24315 43.8484 3.90117 43.8484 3.27903C45.2448 4.17306 46.4913 4.84196 47.5934 5.69698C57.4943 13.378 61.4695 23.4203 59.5181 35.8095C59.4002 36.5583 59.0779 36.7523 58.3432 36.7504C48.93 36.7257 39.5168 36.7328 30.1035 36.7361C28.6801 36.7366 27.5759 37.3498 26.8702 38.5839C26.1898 39.7737 26.2601 41.005 26.9503 42.1573C27.6822 43.379 28.8257 43.9018 30.2444 43.9006C38.6238 43.8934 47.0032 43.8971 55.3826 43.8972C55.7326 43.8972 56.0825 43.8972 56.6027 43.8972C56.4198 44.2909 56.3094 44.5753 56.162 44.839C49.9605 55.9303 37.0193 61.9651 24.5461 59.5858C23.2878 59.3458 23.2876 59.3458 23.2877 58.0906C23.2879 49.0583 23.2897 40.0259 23.2847 30.9936C23.2844 30.4785 23.2769 29.9553 23.1913 29.4498C22.8799 27.6109 21.2639 26.3418 19.4701 26.4899C17.5869 26.6455 16.1694 28.1129 16.1617 29.9948C16.143 34.5382 16.1547 39.0816 16.1544 43.625C16.1542 47.597 16.1543 51.5691 16.1543 55.5411C16.1543 55.8539 16.1543 56.1668 16.1543 56.7245C15.3029 56.237 14.6286 55.9061 14.0121 55.4898C3.61696 48.4698 -0.994806 38.7073 0.178467 26.2201C0.252036 25.4371 0.395824 24.6539 0.594708 23.8937C0.653026 23.6708 0.990785 23.4706 1.24422 23.3649C1.45306 23.2778 1.72657 23.3449 1.97141 23.3449C11.2214 23.3447 20.4714 23.3497 29.7214 23.3414C32.6816 23.3388 34.4746 20.5082 33.0799 18.033C32.3651 16.7644 31.2307 16.1791 29.7687 16.1803C21.7158 16.1872 13.6629 16.1834 5.60992 16.1833C4.91638 16.1832 4.22284 16.1833 3.3405 16.1833C5.91545 11.2295 9.44775 7.45882 14.0168 4.55454ZM56.8089 32.5596C56.8387 31.3112 56.8686 30.0628 56.8985 28.8145C56.9094 28.3609 56.7475 28.1192 56.2344 28.1219C53.3543 28.1371 50.4739 28.1183 47.5941 28.1529C47.3885 28.1554 47.0083 28.4946 47.0112 28.6724C47.0378 30.341 46.9039 31.9698 46.0132 33.548C46.3881 33.5758 46.6223 33.6079 46.8565 33.6082C49.8454 33.6115 52.8346 33.5879 55.823 33.6266C56.5412 33.6359 56.825 33.3857 56.8089 32.5596ZM28.0815 9.71426C28.0822 10.61 28.049 11.508 28.1075 12.4C28.1222 12.625 28.4311 13.0173 28.603 13.0163C30.2679 13.0072 31.9032 13.0978 33.4238 13.988C33.4922 13.7988 33.5578 13.7018 33.558 13.6047C33.5649 10.3746 33.5609 7.14444 33.5724 3.91433C33.5741 3.42237 33.2845 3.32367 32.8965 3.309C31.5959 3.25983 30.2944 3.2287 28.9948 3.1617C28.3053 3.12616 28.045 3.3655 28.0652 4.09541C28.1153 5.91272 28.0815 7.73234 28.0815 9.71426ZM9.22609 31.9356C10.2049 31.9354 11.1844 31.9111 12.1621 31.9438C12.7669 31.9641 13.0726 31.8063 13.027 31.1273C12.9255 29.6133 13.1026 28.1405 13.8413 26.777C13.8721 26.7202 13.8292 26.6235 13.8199 26.5388C13.7333 26.5158 13.6573 26.478 13.5813 26.4778C10.346 26.4721 7.11066 26.4768 3.87545 26.459C3.39688 26.4564 3.25518 26.6869 3.24039 27.0968C3.19143 28.4537 3.14951 29.811 3.08805 31.1674C3.06034 31.7789 3.34316 31.9543 3.92445 31.9449C5.63685 31.917 7.34999 31.9354 9.22609 31.9356ZM27.761 46.6197C27.3665 46.4665 26.9719 46.3133 26.5398 46.1455C26.4893 46.3348 26.4399 46.4342 26.4397 46.5337C26.4332 49.7382 26.439 52.9427 26.422 56.147C26.4191 56.6879 26.7409 56.7837 27.1481 56.7973C28.4492 56.8405 29.7513 56.8575 31.0519 56.9096C31.6775 56.9347 31.9058 56.6915 31.8996 56.0531C31.8732 53.3376 31.8725 50.6217 31.8994 47.9063C31.9059 47.2485 31.7098 47.0213 31.0246 46.9993C29.9758 46.9656 28.9318 46.7832 27.761 46.6197ZM7.75859 40.9689C9.17287 40.9689 10.5887 40.9298 12.0008 40.9845C12.7629 41.014 13.0716 40.8159 13.0335 39.9993C12.9715 38.6695 12.9858 37.3337 13.0294 36.0025C13.0521 35.3116 12.8661 35.0454 12.1218 35.0579C9.56589 35.1006 7.00885 35.0727 4.45227 35.0767C4.19299 35.0772 3.93377 35.1118 3.50805 35.1427C3.87256 36.4309 4.15947 37.6149 4.54372 38.7665C5.28116 40.9765 5.30406 40.9689 7.75859 40.9689ZM24.9582 10.8542C24.9582 8.50137 24.9582 6.14849 24.9582 3.85486C24.7878 3.77409 24.7302 3.72091 24.6919 3.73235C22.9309 4.25758 21.167 4.77429 19.4197 5.34174C19.2543 5.39543 19.1015 5.77063 19.0989 5.99838C19.0742 8.11476 19.0945 10.2316 19.0758 12.3481C19.0711 12.881 19.2803 13.0679 19.7978 13.0569C20.8285 13.0349 21.86 13.052 22.8912 13.0522C24.9583 13.0525 24.9583 13.0523 24.9582 10.8542ZM35.0575 56.1062C35.2787 56.1749 35.5316 56.3503 35.7162 56.2956C37.2998 55.8257 38.8784 55.3352 40.4377 54.7911C40.6551 54.7153 40.8908 54.3175 40.8951 54.065C40.9315 51.9491 40.9042 49.8323 40.924 47.716C40.9291 47.1812 40.7268 47.0055 40.2057 47.0139C38.768 47.0371 37.3286 47.0535 35.892 47.0074C35.1921 46.985 35.0197 47.2583 35.0267 47.9079C35.0556 50.5939 35.0422 53.2803 35.0575 56.1062ZM46.9795 22.9354C46.9796 23.3153 47.0193 23.7003 46.9715 24.074C46.8735 24.8389 47.1963 25.032 47.9288 25.017C50.0986 24.9725 52.27 25.0011 54.4407 25.0012C55.0584 25.0012 55.6761 25.0012 56.3832 25.0012C56.094 22.9682 55.4851 21.1546 54.6882 19.403C54.6126 19.237 54.2392 19.1283 54.0028 19.1259C51.8865 19.1049 49.7698 19.1276 47.6535 19.1044C47.0922 19.0982 46.9633 19.3469 46.9744 19.8423C46.9961 20.8186 46.98 21.7958 46.9795 22.9354ZM29.5393 33.5965C29.7567 33.5999 29.9762 33.6245 30.1911 33.6033C31.6381 33.4609 32.7084 32.7494 33.2727 31.4024C33.8416 30.0445 33.5797 28.7619 32.6181 27.6817C31.6799 26.6279 30.479 26.2255 29.0781 26.6072C27.4667 27.0462 26.4036 28.4563 26.4309 30.099C26.46 31.8437 27.5839 33.1604 29.5393 33.5965ZM9.71685 44.0861C8.89526 44.0861 8.07367 44.0861 7.03282 44.0861C8.67881 46.7714 10.5309 48.9188 12.8294 50.7861C12.9369 50.5564 12.9982 50.4861 12.9986 50.4156C13.0079 48.4917 13.0281 46.5673 12.9882 44.6443C12.9843 44.4552 12.6161 44.131 12.3983 44.1144C11.5628 44.0508 10.7198 44.0871 9.71685 44.0861ZM15.9527 11.1765C15.9527 9.88934 15.9527 8.6022 15.9527 7.07401C13.2556 8.73158 11.1201 10.5903 9.37013 12.9385C11.0193 13.0567 12.6118 13.0672 14.2041 13.0541C16.1664 13.0379 15.932 13.3164 15.9527 11.1765ZM50.5018 12.5963C49.4202 11.4886 48.3385 10.381 47.2568 9.27341C47.1694 9.32959 47.0819 9.38576 46.9945 9.44194C46.9945 11.4935 46.9818 13.5453 47.0238 15.596C47.0265 15.7287 47.4479 15.959 47.6783 15.9639C49.2248 15.9963 50.7724 15.9829 52.3196 15.9744C52.4643 15.9736 52.6087 15.9038 52.9261 15.8209C52.0939 14.7108 51.3347 13.6983 50.5018 12.5963ZM50.3461 47.0268C48.4968 47.0246 46.6473 47.0377 44.7984 47.011C44.2377 47.0029 44.0076 47.1866 44.0401 47.7604C44.0753 48.3838 44.0471 49.0109 44.047 49.6364C44.0468 50.6819 44.0469 51.7273 44.0469 52.7261C44.2073 52.7769 44.241 52.7998 44.2571 52.7909C46.6968 51.4477 48.6768 49.5609 50.4931 47.4859C50.5627 47.4063 50.4798 47.193 50.3461 47.0268Z" fill="#B0334B"/>
<path d="M40.1617 38.7149C46.3311 38.7149 52.4188 38.7149 58.6161 38.7149C58.5233 39.8518 58.1404 40.8128 57.6076 41.7108C57.5266 41.8473 57.1597 41.8534 56.925 41.8536C48.0051 41.8603 39.0853 41.8613 30.1654 41.8561C29.1168 41.8555 28.4459 41.2438 28.4313 40.3264C28.4165 39.39 29.1055 38.7311 30.2084 38.7246C33.4989 38.7052 36.7895 38.716 40.1617 38.7149Z" fill="#AF324A"/>
<path d="M24.8163 18.2013C26.5571 18.204 28.2166 18.185 29.8751 18.218C30.7673 18.2358 31.3348 18.7006 31.4916 19.4436C31.653 20.2084 31.3625 20.7987 30.6831 21.1411C30.3823 21.2927 30.0021 21.3435 29.6578 21.3439C20.4644 21.3548 11.2711 21.3537 2.07768 21.3505C1.8456 21.3504 1.61353 21.3029 1.21185 21.259C1.58724 20.2705 1.87604 19.3711 2.28549 18.5305C2.38664 18.3228 2.87938 18.2167 3.19287 18.2152C7.29987 18.1947 11.407 18.2013 15.5141 18.2013C18.5876 18.2012 21.6612 18.2013 24.8163 18.2013Z" fill="#AF324A"/>
<path d="M18.139 37.8746C18.1392 35.3739 18.137 32.9548 18.1425 30.5357C18.1432 30.2387 18.1407 29.9296 18.2172 29.6471C18.4194 28.9002 18.9551 28.4969 19.7105 28.4946C20.4689 28.4924 21.0094 28.898 21.1967 29.6484C21.2871 30.0106 21.28 30.4027 21.2802 30.7812C21.2843 39.7236 21.2835 48.6661 21.2835 57.6085C21.2835 57.9282 21.2835 58.2479 21.2835 58.7821C20.2283 58.4002 19.3012 58.1245 18.4406 57.7105C18.2288 57.6086 18.1522 57.0564 18.1513 56.7108C18.1346 50.4593 18.139 44.2078 18.139 37.8746Z" fill="#AF324A"/>
<path d="M41.8386 25.9574C41.8376 27.2895 41.8513 28.5402 41.8309 29.7903C41.813 30.8863 41.1772 31.5831 40.2482 31.5782C39.3211 31.5733 38.6997 30.8763 38.6988 29.762C38.6915 20.5194 38.6939 11.2768 38.6967 2.03427C38.6967 1.85054 38.7367 1.66681 38.7808 1.28735C39.755 1.65373 40.6792 1.94085 41.535 2.36571C41.7491 2.472 41.8251 3.02128 41.8261 3.36739C41.8435 8.99445 41.8385 14.6216 41.8386 20.2487C41.8386 22.1244 41.8386 24.0001 41.8386 25.9574Z" fill="#B0334B"/>
</svg>
