<svg width="328" height="57" viewBox="0 0 328 57" fill="none" xmlns="http://www.w3.org/2000/svg">
<path d="M14.712 4.25091C21.6916 0.464631 29.1586 -0.755096 37.1442 0.44307C38.5212 0.64967 38.5242 0.63729 38.5243 1.85157C38.5246 10.5103 38.5219 19.169 38.5273 27.8277C38.5283 29.4484 39.3692 30.6012 40.889 31.1274C43.119 31.8994 45.5578 30.6767 45.948 28.5751C46.0218 28.1776 46.0199 27.766 46.0201 27.3609C46.0241 19.6671 46.0231 11.9733 46.0231 4.27945C46.0231 3.96027 46.0231 3.64109 46.0231 3.06043C47.4887 3.89486 48.7971 4.51916 49.9538 5.31718C60.3458 12.4861 64.5181 21.8589 62.47 33.4222C62.3462 34.1211 62.008 34.3022 61.2368 34.3004C51.3568 34.2773 41.4766 34.2839 31.5966 34.287C30.1025 34.2875 28.9435 34.8598 28.2029 36.0116C27.4888 37.1221 27.5625 38.2713 28.2869 39.3468C29.0551 40.4871 30.2554 40.975 31.7444 40.9739C40.5394 40.9671 49.3344 40.9707 58.1294 40.9707C58.4967 40.9707 58.864 40.9707 59.41 40.9707C59.218 41.3382 59.1022 41.6036 58.9475 41.8497C52.4383 52.2016 38.8553 57.8341 25.7635 55.6134C24.4428 55.3894 24.4426 55.3894 24.4427 54.2179C24.4429 45.7877 24.4448 37.3575 24.4395 28.9273C24.4392 28.4466 24.4314 27.9583 24.3415 27.4864C24.0146 25.7702 22.3186 24.5857 20.4358 24.7239C18.4592 24.8691 16.9714 26.2387 16.9632 27.9952C16.9436 32.2356 16.9559 36.4761 16.9556 40.7166C16.9554 44.4239 16.9555 48.1311 16.9555 51.8384C16.9555 52.1303 16.9555 52.4223 16.9555 52.9429C16.0619 52.4879 15.3542 52.1791 14.7071 51.7905C3.79635 45.2385 -1.04414 36.1268 0.187318 24.4721C0.264536 23.7413 0.415455 23.0103 0.624204 22.3008C0.685414 22.0928 1.03992 21.9059 1.30593 21.8072C1.52513 21.7259 1.8122 21.7886 2.06919 21.7886C11.778 21.7883 21.4867 21.7931 31.1955 21.7853C34.3025 21.7828 36.1844 19.141 34.7205 16.8308C33.9703 15.6468 32.7796 15.1005 31.2452 15.1016C22.7928 15.108 14.3405 15.1045 5.88815 15.1044C5.16021 15.1044 4.43228 15.1044 3.50618 15.1044C6.20883 10.4809 9.91633 6.96157 14.712 4.25091ZM59.6264 30.389C59.6577 29.2238 59.6891 28.0587 59.7205 26.8935C59.7319 26.4702 59.5619 26.2446 59.0235 26.2471C56.0005 26.2613 52.9772 26.2438 49.9546 26.276C49.7388 26.2783 49.3398 26.595 49.3427 26.7609C49.3707 28.3182 49.2301 29.8384 48.2953 31.3115C48.6888 31.3374 48.9346 31.3674 49.1804 31.3676C52.3175 31.3708 55.455 31.3487 58.5916 31.3848C59.3454 31.3935 59.6433 31.16 59.6264 30.389ZM29.4742 9.06664C29.475 9.90269 29.4402 10.7408 29.5015 11.5733C29.517 11.7833 29.8412 12.1495 30.0216 12.1486C31.769 12.1401 33.4855 12.2246 35.0815 13.0555C35.1533 12.8789 35.2221 12.7884 35.2223 12.6977C35.2296 9.68295 35.2254 6.66814 35.2374 3.65338C35.2393 3.19421 34.9353 3.10209 34.528 3.0884C33.1629 3.0425 31.7969 3.01345 30.4328 2.95092C29.7091 2.91774 29.436 3.14114 29.4571 3.82238C29.5097 5.51854 29.4743 7.21685 29.4742 9.06664ZM9.68367 29.8066C10.711 29.8064 11.7392 29.7837 12.7653 29.8142C13.4001 29.8331 13.7209 29.6859 13.6731 29.0521C13.5666 27.6391 13.7525 26.2645 14.5278 24.9918C14.5601 24.9388 14.5151 24.8486 14.5053 24.7696C14.4144 24.748 14.3347 24.7128 14.2548 24.7126C10.8591 24.7073 7.46332 24.7117 4.06766 24.6951C3.56536 24.6926 3.41662 24.9078 3.4011 25.2904C3.34971 26.5568 3.30571 27.8236 3.24121 29.0895C3.21213 29.6603 3.50897 29.824 4.11909 29.8152C5.91641 29.7892 7.71453 29.8063 9.68367 29.8066ZM29.1378 43.5117C28.7237 43.3688 28.3096 43.2258 27.856 43.0692C27.8031 43.2458 27.7512 43.3386 27.751 43.4315C27.7442 46.4223 27.7502 49.4131 27.7324 52.4039C27.7294 52.9087 28.0671 52.9981 28.4946 53.0108C29.8602 53.0511 31.2268 53.067 32.592 53.1156C33.2485 53.139 33.4882 52.9121 33.4817 52.3162C33.454 49.7818 33.4533 47.2469 33.4815 44.7125C33.4883 44.0986 33.2825 43.8865 32.5633 43.866C31.4625 43.8346 30.3667 43.6644 29.1378 43.5117ZM8.14339 38.2376C9.62782 38.2376 11.1138 38.2011 12.596 38.2522C13.3958 38.2797 13.7199 38.0948 13.6799 37.3327C13.6148 36.0916 13.6298 34.8448 13.6756 33.6023C13.6994 32.9575 13.5042 32.709 12.723 32.7207C10.0403 32.7605 7.35647 32.7345 4.67309 32.7383C4.40095 32.7387 4.12887 32.771 3.68204 32.7998C4.06462 34.0021 4.36577 35.1072 4.76907 36.182C5.54308 38.2448 5.56713 38.2376 8.14339 38.2376ZM26.1961 10.1306C26.1961 7.93461 26.1961 5.73859 26.1961 3.59787C26.0172 3.52248 25.9567 3.47285 25.9165 3.48352C24.0682 3.97374 22.2168 4.456 20.3828 4.98562C20.2093 5.03573 20.0489 5.38592 20.0461 5.59848C20.0202 7.57377 20.0416 9.54953 20.0219 11.5249C20.0169 12.0222 20.2365 12.1967 20.7797 12.1864C21.8615 12.1659 22.9442 12.1819 24.0266 12.182C26.1961 12.1823 26.1961 12.1821 26.1961 10.1306ZM36.7962 52.3657C37.0284 52.4299 37.2938 52.5936 37.4876 52.5425C39.1498 52.104 40.8067 51.6461 42.4433 51.1384C42.6714 51.0676 42.9188 50.6964 42.9234 50.4606C42.9616 48.4858 42.9329 46.5101 42.9537 44.5349C42.959 44.0357 42.7467 43.8718 42.1998 43.8797C40.6907 43.9013 39.18 43.9166 37.6721 43.8736C36.9375 43.8526 36.7566 44.1078 36.7639 44.714C36.7942 47.2209 36.7801 49.7283 36.7962 52.3657ZM49.3095 21.4064C49.3096 21.761 49.3513 22.1202 49.3011 22.4691C49.1983 23.183 49.5371 23.3632 50.3059 23.3492C52.5834 23.3076 54.8624 23.3344 57.1408 23.3344C57.7891 23.3344 58.4374 23.3344 59.1796 23.3344C58.876 21.437 58.2369 19.7443 57.4005 18.1095C57.3212 17.9545 56.9293 17.853 56.6811 17.8509C54.4599 17.8312 52.2382 17.8524 50.017 17.8307C49.4278 17.825 49.2925 18.0571 49.3041 18.5194C49.3269 19.4307 49.31 20.3427 49.3095 21.4064ZM31.0044 31.3567C31.2325 31.3599 31.4629 31.3828 31.6885 31.3631C33.2072 31.2301 34.3306 30.5661 34.9229 29.3089C35.52 28.0415 35.2451 26.8444 34.2358 25.8362C33.2512 24.8527 31.9906 24.4771 30.5203 24.8333C28.8289 25.2431 27.7131 26.5592 27.7418 28.0924C27.7723 29.7208 28.9519 30.9497 31.0044 31.3567ZM10.1988 41.147C9.33643 41.147 8.47409 41.147 7.38162 41.147C9.10925 43.6533 11.0531 45.6575 13.4657 47.4004C13.5785 47.1859 13.6429 47.1204 13.6433 47.0546C13.653 45.2589 13.6742 43.4628 13.6324 41.668C13.6283 41.4915 13.2418 41.1889 13.0132 41.1735C12.1363 41.1141 11.2515 41.1479 10.1988 41.147ZM16.7439 10.4314C16.7439 9.23005 16.7439 8.02872 16.7439 6.60241C13.913 8.14947 11.6716 9.88426 9.83485 12.076C11.5658 12.1863 13.2373 12.196 14.9086 12.1838C16.9682 12.1687 16.7222 12.4286 16.7439 10.4314ZM53.0065 11.7565C51.8712 10.7227 50.7359 9.68896 49.6006 8.65518C49.5088 8.70761 49.417 8.76004 49.3252 8.81247C49.3252 10.7272 49.3119 12.6423 49.356 14.5562C49.3589 14.6801 49.8011 14.8951 50.0429 14.8996C51.6662 14.9298 53.2905 14.9174 54.9144 14.9095C55.0664 14.9087 55.2179 14.8436 55.551 14.7662C54.6775 13.7301 53.8808 12.7851 53.0065 11.7565ZM52.843 43.8917C50.9021 43.8896 48.9609 43.9019 47.0202 43.877C46.4317 43.8694 46.1903 44.0408 46.2243 44.5763C46.2613 45.1582 46.2317 45.7435 46.2316 46.3273C46.2313 47.3031 46.2315 48.2788 46.2315 49.211C46.3998 49.2584 46.4351 49.2798 46.4521 49.2715C49.0128 48.0178 51.091 46.2568 52.9973 44.3202C53.0705 44.2459 52.9834 44.0468 52.843 43.8917Z" fill="#B0334B"/>
<path d="M42.1535 36.134C48.6288 36.134 55.0185 36.134 61.5232 36.134C61.4257 37.1951 61.0238 38.092 60.4646 38.9302C60.3796 39.0575 59.9945 39.0632 59.7482 39.0634C50.3859 39.0696 41.0236 39.0706 31.6614 39.0658C30.5608 39.0652 29.8566 38.4943 29.8413 37.638C29.8257 36.764 30.5489 36.1491 31.7065 36.143C35.1602 36.1249 38.614 36.1349 42.1535 36.134Z" fill="#AF324A"/>
<path d="M26.0471 16.9879C27.8742 16.9904 29.6161 16.9727 31.3569 17.0036C32.2933 17.0202 32.8889 17.454 33.0535 18.1475C33.2228 18.8612 32.918 19.4122 32.2049 19.7318C31.8892 19.8733 31.4901 19.9207 31.1288 19.9211C21.4794 19.9312 11.8301 19.9302 2.18074 19.9272C1.93715 19.9271 1.69357 19.8828 1.27197 19.8418C1.66598 18.9192 1.9691 18.0798 2.39886 17.2952C2.50502 17.1014 3.0222 17.0023 3.35124 17.0009C7.66193 16.9818 11.9728 16.988 16.2836 16.9879C19.5095 16.9879 22.7355 16.9879 26.0471 16.9879Z" fill="#AF324A"/>
<path d="M19.0386 35.3496C19.0388 33.0156 19.0365 30.7578 19.0423 28.5C19.043 28.2228 19.0404 27.9343 19.1207 27.6707C19.3329 26.9735 19.8952 26.5971 20.6881 26.595C21.4841 26.5929 22.0513 26.9715 22.248 27.6718C22.3429 28.0099 22.3354 28.3758 22.3356 28.7291C22.34 37.0754 22.3391 45.4216 22.3391 53.7679C22.3391 54.0663 22.3391 54.3647 22.3391 54.8633C21.2316 54.5068 20.2585 54.2495 19.3552 53.8631C19.1329 53.768 19.0525 53.2526 19.0515 52.9301C19.034 47.0953 19.0387 41.2606 19.0386 35.3496Z" fill="#AF324A"/>
<path d="M43.9137 24.227C43.9125 25.4703 43.927 26.6376 43.9056 27.8044C43.8868 28.8273 43.2194 29.4777 42.2444 29.4731C41.2713 29.4686 40.6191 28.818 40.6181 27.778C40.6105 19.1516 40.613 10.5252 40.6159 1.89878C40.6159 1.7273 40.6579 1.55582 40.7042 1.20166C41.7267 1.54361 42.6967 1.81159 43.595 2.20813C43.8197 2.30733 43.8994 2.82 43.9006 3.14303C43.9188 8.39495 43.9136 13.6469 43.9136 18.8989C43.9137 20.6495 43.9136 22.4002 43.9137 24.227Z" fill="#B0334B"/>
<path d="M76.6582 27.8438L80.627 5.85938C80.6478 5.77604 80.6999 5.73438 80.7832 5.73438H85.4238C85.5072 5.73438 85.5592 5.77604 85.5801 5.85938L89.3926 27.8438C89.403 27.9479 89.3613 28 89.2676 28H85.7207C85.6165 28 85.5592 27.9479 85.5488 27.8438L85.2051 25.5H80.8457L80.502 27.8438C80.4915 27.9479 80.4395 28 80.3457 28H76.7832C76.6999 28 76.6582 27.9479 76.6582 27.8438ZM82.9238 13.0938L81.4863 22.0781H84.5645L83.252 13.0938L83.0645 11.9062L82.9238 13.0938ZM95.2926 28H91.6676C91.5842 28 91.5426 27.9479 91.5426 27.8438L91.6051 5.89062C91.6051 5.78646 91.6467 5.73438 91.7301 5.73438H95.3238C95.4072 5.73438 95.4488 5.78646 95.4488 5.89062V13.4688L100.464 5.85938C100.548 5.77604 100.626 5.73438 100.699 5.73438H104.371C104.464 5.73438 104.485 5.77604 104.433 5.85938L98.902 14.6875L105.105 27.875C105.157 27.9583 105.105 28 104.949 28H101.043C100.938 28 100.876 27.9583 100.855 27.875L96.527 18.4688L95.4176 20.2188V27.8438C95.4176 27.9479 95.3759 28 95.2926 28ZM105.614 27.8438L109.583 5.85938C109.604 5.77604 109.656 5.73438 109.739 5.73438H114.38C114.463 5.73438 114.515 5.77604 114.536 5.85938L118.349 27.8438C118.359 27.9479 118.318 28 118.224 28H114.677C114.573 28 114.515 27.9479 114.505 27.8438L114.161 25.5H109.802L109.458 27.8438C109.448 27.9479 109.396 28 109.302 28H105.739C105.656 28 105.614 27.9479 105.614 27.8438ZM111.88 13.0938L110.443 22.0781H113.521L112.208 13.0938L112.021 11.9062L111.88 13.0938ZM132.711 28H129.086C129.003 28 128.961 27.9479 128.961 27.8438L129.024 5.85938C129.024 5.77604 129.065 5.73438 129.149 5.73438H133.055C133.138 5.73438 133.211 5.77604 133.274 5.85938L136.196 10.0781L139.102 5.85938C139.164 5.77604 139.243 5.73438 139.336 5.73438H143.258C143.352 5.73438 143.399 5.77604 143.399 5.85938L143.461 27.8438C143.461 27.9479 143.42 28 143.336 28H139.711C139.628 28 139.586 27.9479 139.586 27.8438L139.555 11.5156L136.196 16.3906L132.868 11.5156L132.836 27.8438C132.836 27.9479 132.795 28 132.711 28ZM152.221 28.3125C151.085 28.3125 150.038 28.0208 149.08 27.4375C148.132 26.8542 147.367 26.0781 146.783 25.1094C146.21 24.1302 145.924 23.0573 145.924 21.8906L145.955 11.75C145.955 10.5625 146.242 9.49479 146.814 8.54688C147.377 7.58854 148.137 6.82292 149.096 6.25C150.054 5.66667 151.096 5.375 152.221 5.375C153.387 5.375 154.434 5.66146 155.361 6.23438C156.299 6.80729 157.049 7.57812 157.611 8.54688C158.184 9.50521 158.471 10.5729 158.471 11.75L158.502 21.8906C158.502 23.0573 158.221 24.125 157.658 25.0938C157.085 26.0729 156.325 26.8542 155.377 27.4375C154.429 28.0208 153.377 28.3125 152.221 28.3125ZM152.221 24.4531C152.867 24.4531 153.429 24.1927 153.908 23.6719C154.387 23.1406 154.627 22.5469 154.627 21.8906L154.596 11.75C154.596 11.0417 154.372 10.4427 153.924 9.95312C153.476 9.46354 152.908 9.21875 152.221 9.21875C151.564 9.21875 151.002 9.45833 150.533 9.9375C150.064 10.4167 149.83 11.0208 149.83 11.75V21.8906C149.83 22.5885 150.064 23.1927 150.533 23.7031C151.002 24.2031 151.564 24.4531 152.221 24.4531ZM164.824 28H161.199C161.115 28 161.074 27.9479 161.074 27.8438L161.136 5.85938C161.136 5.77604 161.178 5.73438 161.261 5.73438H165.168C165.251 5.73438 165.324 5.77604 165.386 5.85938L168.308 10.0781L171.214 5.85938C171.277 5.77604 171.355 5.73438 171.449 5.73438H175.371C175.464 5.73438 175.511 5.77604 175.511 5.85938L175.574 27.8438C175.574 27.9479 175.532 28 175.449 28H171.824C171.74 28 171.699 27.9479 171.699 27.8438L171.668 11.5156L168.308 16.3906L164.98 11.5156L164.949 27.8438C164.949 27.9479 164.907 28 164.824 28ZM182.193 28H178.568C178.463 28 178.411 27.9479 178.411 27.8438L178.443 5.85938C178.443 5.77604 178.484 5.73438 178.568 5.73438H182.161C182.245 5.73438 182.286 5.77604 182.286 5.85938L182.318 27.8438C182.318 27.9479 182.276 28 182.193 28ZM190.53 28.3125C189.353 28.3125 188.285 28.0312 187.327 27.4688C186.379 26.9062 185.629 26.1302 185.077 25.1406C184.535 24.1406 184.264 23.026 184.264 21.7969V20.3125C184.264 20.2292 184.306 20.1875 184.389 20.1875H188.014C188.098 20.1875 188.139 20.2448 188.139 20.3594V21.7969C188.139 22.5781 188.363 23.2188 188.811 23.7188C189.259 24.2083 189.832 24.4531 190.53 24.4531C191.176 24.4531 191.733 24.1875 192.202 23.6562C192.671 23.1146 192.905 22.4948 192.905 21.7969V5.89062C192.905 5.80729 192.947 5.76562 193.03 5.76562H196.624C196.707 5.76562 196.749 5.81771 196.749 5.92188L196.78 21.7969C196.78 22.9635 196.499 24.0417 195.936 25.0312C195.363 26.0312 194.608 26.8281 193.671 27.4219C192.733 28.0156 191.686 28.3125 190.53 28.3125ZM203.118 28H199.493C199.388 28 199.336 27.9479 199.336 27.8438L199.368 5.85938C199.368 5.77604 199.409 5.73438 199.493 5.73438H203.086C203.17 5.73438 203.211 5.77604 203.211 5.85938L203.243 27.8438C203.243 27.9479 203.201 28 203.118 28ZM225.136 28H214.793C214.709 28 214.668 27.9479 214.668 27.8438L214.699 5.89062C214.699 5.78646 214.751 5.73438 214.855 5.73438H218.418C218.522 5.73438 218.574 5.78646 218.574 5.89062L218.543 24.0625H225.136C225.24 24.0625 225.293 24.1146 225.293 24.2188V27.8438C225.293 27.9479 225.24 28 225.136 28ZM233.458 28.3125C232.323 28.3125 231.276 28.0208 230.318 27.4375C229.37 26.8542 228.604 26.0781 228.021 25.1094C227.448 24.1302 227.161 23.0573 227.161 21.8906L227.193 11.75C227.193 10.5625 227.479 9.49479 228.052 8.54688C228.614 7.58854 229.375 6.82292 230.333 6.25C231.292 5.66667 232.333 5.375 233.458 5.375C234.625 5.375 235.672 5.66146 236.599 6.23438C237.536 6.80729 238.286 7.57812 238.849 8.54688C239.422 9.50521 239.708 10.5729 239.708 11.75L239.739 21.8906C239.739 23.0573 239.458 24.125 238.896 25.0938C238.323 26.0729 237.562 26.8542 236.614 27.4375C235.667 28.0208 234.614 28.3125 233.458 28.3125ZM233.458 24.4531C234.104 24.4531 234.667 24.1927 235.146 23.6719C235.625 23.1406 235.864 22.5469 235.864 21.8906L235.833 11.75C235.833 11.0417 235.609 10.4427 235.161 9.95312C234.713 9.46354 234.146 9.21875 233.458 9.21875C232.802 9.21875 232.239 9.45833 231.771 9.9375C231.302 10.4167 231.068 11.0208 231.068 11.75V21.8906C231.068 22.5885 231.302 23.1927 231.771 23.7031C232.239 24.2031 232.802 24.4531 233.458 24.4531ZM248.202 28.3125C247.077 28.3125 246.035 28.0208 245.077 27.4375C244.119 26.8542 243.353 26.0729 242.78 25.0938C242.218 24.1042 241.936 23.026 241.936 21.8594L241.999 5.85938C241.999 5.77604 242.04 5.73438 242.124 5.73438H245.718C245.801 5.73438 245.843 5.77604 245.843 5.85938V21.8594C245.843 22.5781 246.072 23.1927 246.53 23.7031C246.988 24.2031 247.546 24.4531 248.202 24.4531C248.889 24.4531 249.462 24.2031 249.921 23.7031C250.379 23.1927 250.608 22.5781 250.608 21.8594V5.85938C250.608 5.77604 250.65 5.73438 250.733 5.73438H254.327C254.41 5.73438 254.452 5.77604 254.452 5.85938L254.514 21.8594C254.514 23.0365 254.233 24.1198 253.671 25.1094C253.098 26.0885 252.337 26.8698 251.389 27.4531C250.442 28.026 249.379 28.3125 248.202 28.3125ZM260.664 28H257.461C257.295 28 257.211 27.9271 257.211 27.7812L257.18 5.98438C257.18 5.81771 257.263 5.73438 257.43 5.73438H260.321L265.727 18.3438L265.571 5.98438C265.571 5.81771 265.664 5.73438 265.852 5.73438H269.024C269.149 5.73438 269.211 5.81771 269.211 5.98438L269.243 27.8125C269.243 27.9375 269.191 28 269.086 28H266.274L260.727 16.2188L260.961 27.75C260.961 27.9167 260.862 28 260.664 28ZM278.033 28.3125C276.877 28.3125 275.835 28.026 274.908 27.4531C273.971 26.8802 273.215 26.1094 272.643 25.1406C272.08 24.1719 271.799 23.0885 271.799 21.8906V11.75C271.799 10.5833 272.085 9.52083 272.658 8.5625C273.221 7.59375 273.976 6.82292 274.924 6.25C275.872 5.66667 276.908 5.375 278.033 5.375C279.21 5.375 280.273 5.65625 281.221 6.21875C282.169 6.79167 282.919 7.55729 283.471 8.51562C284.033 9.47396 284.314 10.5521 284.314 11.75V13.2188C284.314 13.3021 284.262 13.3438 284.158 13.3438H280.564C280.481 13.3438 280.439 13.3021 280.439 13.2188V12C280.439 11.1875 280.21 10.5156 279.752 9.98438C279.294 9.45312 278.721 9.1875 278.033 9.1875C277.419 9.1875 276.872 9.44271 276.393 9.95312C275.913 10.4635 275.674 11.0625 275.674 11.75V21.8906C275.674 22.5885 275.908 23.1927 276.377 23.7031C276.846 24.2031 277.398 24.4531 278.033 24.4531C278.721 24.4531 279.294 24.2083 279.752 23.7188C280.21 23.2188 280.439 22.6094 280.439 21.8906V20.3125H278.205C278.09 20.3125 278.033 20.2604 278.033 20.1562V16.5781C278.033 16.474 278.09 16.4219 278.205 16.4219H284.189C284.273 16.4219 284.314 16.474 284.314 16.5781V21.8906C284.314 23.0885 284.033 24.1719 283.471 25.1406C282.898 26.1094 282.143 26.8802 281.205 27.4531C280.268 28.026 279.21 28.3125 278.033 28.3125ZM297.199 28H286.855C286.772 28 286.73 27.9479 286.73 27.8438L286.761 5.85938C286.761 5.77604 286.803 5.73438 286.886 5.73438H297.168C297.251 5.73438 297.293 5.78646 297.293 5.89062V9.46875C297.293 9.55208 297.251 9.59375 297.168 9.59375H290.605V14.5938H297.168C297.251 14.5938 297.293 14.6354 297.293 14.7188L297.324 18.3438C297.324 18.4271 297.282 18.4688 297.199 18.4688H290.605V24.0625H297.199C297.282 24.0625 297.324 24.1146 297.324 24.2188V27.875C297.324 27.9583 297.282 28 297.199 28Z" fill="#DBDBD7"/>
<path d="M83.7667 40.296H84.6067L78.6307 46.496V45.568L83.7667 40.296ZM80.2947 44.488L84.8627 50H84.0467L79.8227 44.88L80.2947 44.488ZM78.2147 40.296H78.8227V50H78.2147V40.296ZM85.7498 40.296H86.5018L89.7898 45.6H89.5178L92.8058 40.296H93.5418L89.9738 46.04V50H89.3498V46.04L85.7498 40.296ZM98.5646 50.16C97.8232 50.16 97.1512 49.9787 96.5486 49.616C95.9459 49.2533 95.4659 48.704 95.1086 47.968C94.7512 47.232 94.5726 46.3067 94.5726 45.192C94.5726 44.0613 94.7512 43.1227 95.1086 42.376C95.4659 41.6293 95.9459 41.072 96.5486 40.704C97.1512 40.336 97.8232 40.152 98.5646 40.152C99.3006 40.152 99.9672 40.336 100.565 40.704C101.167 41.0667 101.647 41.6213 102.005 42.368C102.362 43.1147 102.541 44.056 102.541 45.192C102.541 46.312 102.362 47.24 102.005 47.976C101.647 48.712 101.167 49.2613 100.565 49.624C99.9672 49.9813 99.3006 50.16 98.5646 50.16ZM98.5646 49.584C99.6099 49.584 100.429 49.216 101.021 48.48C101.618 47.7387 101.917 46.6373 101.917 45.176C101.917 43.7253 101.618 42.6133 101.021 41.84C100.429 41.0667 99.6099 40.68 98.5646 40.68C97.5192 40.68 96.6952 41.0667 96.0926 41.84C95.4952 42.6133 95.1966 43.7307 95.1966 45.192C95.1966 46.648 95.4952 47.744 96.0926 48.48C96.6952 49.216 97.5192 49.584 98.5646 49.584ZM103.657 40.792V40.296H110.969V40.792H107.457L107.593 40.656V50H107.001V40.656L107.137 40.792H103.657ZM116.083 50.16C115.342 50.16 114.67 49.9787 114.067 49.616C113.465 49.2533 112.985 48.704 112.627 47.968C112.27 47.232 112.091 46.3067 112.091 45.192C112.091 44.0613 112.27 43.1227 112.627 42.376C112.985 41.6293 113.465 41.072 114.067 40.704C114.67 40.336 115.342 40.152 116.083 40.152C116.819 40.152 117.486 40.336 118.083 40.704C118.686 41.0667 119.166 41.6213 119.523 42.368C119.881 43.1147 120.059 44.056 120.059 45.192C120.059 46.312 119.881 47.24 119.523 47.976C119.166 48.712 118.686 49.2613 118.083 49.624C117.486 49.9813 116.819 50.16 116.083 50.16ZM116.083 49.584C117.129 49.584 117.947 49.216 118.539 48.48C119.137 47.7387 119.435 46.6373 119.435 45.176C119.435 43.7253 119.137 42.6133 118.539 41.84C117.947 41.0667 117.129 40.68 116.083 40.68C115.038 40.68 114.214 41.0667 113.611 41.84C113.014 42.6133 112.715 43.7307 112.715 45.192C112.715 46.648 113.014 47.744 113.611 48.48C114.214 49.216 115.038 49.584 116.083 49.584ZM126.521 50V40.296H127.113V50H126.521ZM130.749 40.296H131.653L137.149 49.456H137.069V40.296H137.661V50H136.813L131.269 40.752H131.341V50H130.749V40.296ZM144.113 50.16C143.495 50.16 142.927 50.0427 142.409 49.808C141.897 49.5733 141.487 49.24 141.177 48.808C140.873 48.3707 140.724 47.848 140.729 47.24H141.289C141.289 47.7787 141.42 48.224 141.681 48.576C141.943 48.9227 142.287 49.1813 142.713 49.352C143.14 49.5173 143.601 49.6 144.097 49.6C144.689 49.6 145.191 49.4987 145.601 49.296C146.017 49.088 146.332 48.824 146.545 48.504C146.764 48.1787 146.873 47.84 146.873 47.488C146.873 46.9813 146.716 46.5627 146.401 46.232C146.092 45.896 145.657 45.6453 145.097 45.48L143.593 45.056C142.729 44.7733 142.084 44.456 141.657 44.104C141.231 43.752 141.017 43.2507 141.017 42.6C141.017 41.8853 141.281 41.2987 141.809 40.84C142.343 40.3813 143.116 40.152 144.129 40.152C145.015 40.152 145.713 40.3547 146.225 40.76C146.743 41.16 147.044 41.6693 147.129 42.288H146.537C146.452 41.7653 146.204 41.3707 145.793 41.104C145.383 40.832 144.828 40.696 144.129 40.696C143.335 40.696 142.724 40.88 142.297 41.248C141.871 41.616 141.657 42.0827 141.657 42.648C141.657 43.096 141.791 43.4533 142.057 43.72C142.329 43.9813 142.759 44.2053 143.345 44.392L145.225 44.952C145.897 45.1333 146.447 45.4267 146.873 45.832C147.3 46.2373 147.513 46.7893 147.513 47.488C147.513 47.9307 147.385 48.3573 147.129 48.768C146.873 49.1733 146.492 49.5067 145.985 49.768C145.484 50.0293 144.86 50.16 144.113 50.16ZM150.564 50V40.296H153.356C154.396 40.296 155.172 40.568 155.684 41.112C156.196 41.6507 156.452 42.3413 156.452 43.184C156.452 44.0213 156.196 44.7067 155.684 45.24C155.172 45.768 154.396 46.032 153.356 46.032H151.172V50H150.564ZM151.172 45.512H153.356C154.167 45.512 154.783 45.3093 155.204 44.904C155.631 44.4987 155.844 43.9253 155.844 43.184C155.844 42.4373 155.631 41.8533 155.204 41.432C154.783 41.0053 154.167 40.792 153.356 40.792H151.172V45.512ZM159.152 50V40.296H159.744V50H159.152ZM163.38 50V40.296H166.54C167.591 40.296 168.372 40.5547 168.884 41.072C169.396 41.584 169.652 42.2453 169.652 43.056C169.652 43.872 169.396 44.5387 168.884 45.056C168.372 45.568 167.591 45.824 166.54 45.824H163.972V50H163.38ZM169.028 50L166.02 45.752H166.708L169.78 50H169.028ZM163.972 45.336H166.548C167.359 45.336 167.978 45.1253 168.404 44.704C168.831 44.2773 169.044 43.7227 169.044 43.04C169.044 42.3413 168.828 41.792 168.396 41.392C167.97 40.992 167.351 40.792 166.54 40.792H163.972V45.336ZM172.796 50V40.296H178.5V40.792H173.388V44.824H178.212V45.328H173.388V49.488H178.5V50H172.796ZM181.555 40.296H184.075C185.046 40.296 185.881 40.496 186.579 40.896C187.278 41.296 187.814 41.8587 188.187 42.584C188.566 43.3093 188.755 44.16 188.755 45.136C188.755 46.1013 188.566 46.9493 188.187 47.68C187.814 48.4107 187.278 48.9813 186.579 49.392C185.881 49.7973 185.046 50 184.075 50H181.555V40.296ZM182.147 40.776V49.536H184.075C184.923 49.536 185.651 49.344 186.259 48.96C186.867 48.576 187.334 48.0533 187.659 47.392C187.985 46.7253 188.147 45.9733 188.147 45.136C188.147 44.2987 187.985 43.552 187.659 42.896C187.334 42.24 186.867 41.7227 186.259 41.344C185.651 40.9653 184.923 40.776 184.075 40.776H182.147Z" fill="#DBDBD7"/>
</svg>
