<svg width="24" height="25" viewBox="0 0 24 25" fill="none" xmlns="http://www.w3.org/2000/svg">
<g clip-path="url(#clip0_41_711)">
<path d="M24 12.0936C24 5.46621 18.6274 0.0936279 12 0.0936279C5.37258 0.0936279 0 5.46621 0 12.0936C0 18.0831 4.3882 23.0476 10.125 23.9478V15.5624H7.07812V12.0936H10.125V9.44988C10.125 6.44238 11.9166 4.78113 14.6576 4.78113C15.9701 4.78113 17.3438 5.0155 17.3438 5.0155V7.96863H15.8306C14.34 7.96863 13.875 8.89371 13.875 9.84363V12.0936H17.2031L16.6711 15.5624H13.875V23.9478C19.6118 23.0476 24 18.0831 24 12.0936Z" fill="white"/>
</g>
<defs>
<clipPath id="clip0_41_711">
<rect width="24" height="24" fill="white" transform="translate(0 0.0936279)"/>
</clipPath>
</defs>
</svg>
