<svg width="24" height="25" viewBox="0 0 24 25" fill="none" xmlns="http://www.w3.org/2000/svg">
<g clip-path="url(#clip0_41_712)">
<path fill-rule="evenodd" clip-rule="evenodd" d="M12 0.0936279C5.3724 0.0936279 0 5.47443 0 12.114C0 17.424 3.438 21.93 8.2068 23.5188C8.8068 23.6292 9.0252 23.2584 9.0252 22.9392C9.0252 22.6548 9.0156 21.8976 9.0096 20.8956C5.6712 21.6216 4.9668 19.284 4.9668 19.284C4.422 17.8944 3.6348 17.5248 3.6348 17.5248C2.5452 16.7808 3.7176 16.7952 3.7176 16.7952C4.9212 16.8792 5.5548 18.0336 5.5548 18.0336C6.6252 19.8696 8.364 19.3392 9.0468 19.032C9.1572 18.2556 9.4668 17.7264 9.81 17.4264C7.146 17.1228 4.344 16.0908 4.344 11.4852C4.344 10.1736 4.812 9.09963 5.5788 8.25963C5.4552 7.95603 5.0436 6.73323 5.6964 5.07963C5.6964 5.07963 6.7044 4.75563 8.9964 6.31083C9.97532 6.04384 10.9853 5.90786 12 5.90643C13.02 5.91123 14.046 6.04443 15.0048 6.31083C17.2956 4.75563 18.3012 5.07843 18.3012 5.07843C18.9564 6.73323 18.5436 7.95603 18.4212 8.25963C19.1892 9.09963 19.6548 10.1736 19.6548 11.4852C19.6548 16.1028 16.848 17.1192 14.1756 17.4168C14.6064 17.7876 14.9892 18.5208 14.9892 19.6428C14.9892 21.2484 14.9748 22.5456 14.9748 22.9392C14.9748 23.2608 15.1908 23.6352 15.8004 23.5176C18.19 22.7162 20.2672 21.184 21.7386 19.1377C23.2099 17.0914 24.001 14.6344 24 12.114C24 5.47443 18.6264 0.0936279 12 0.0936279Z" fill="white"/>
</g>
<defs>
<clipPath id="clip0_41_712">
<rect width="24" height="24" fill="white" transform="translate(0 0.0936279)"/>
</clipPath>
</defs>
</svg>
