<svg width="24" height="25" viewBox="0 0 24 25" fill="none" xmlns="http://www.w3.org/2000/svg">
<g clip-path="url(#clip0_41_710)">
<path d="M22.2234 0.0936279H1.77187C0.792187 0.0936279 0 0.867066 0 1.82332V22.3593C0 23.3155 0.792187 24.0936 1.77187 24.0936H22.2234C23.2031 24.0936 24 23.3155 24 22.3639V1.82332C24 0.867066 23.2031 0.0936279 22.2234 0.0936279ZM7.12031 20.5452H3.55781V9.08894H7.12031V20.5452ZM5.33906 7.528C4.19531 7.528 3.27188 6.60457 3.27188 5.4655C3.27188 4.32644 4.19531 3.403 5.33906 3.403C6.47813 3.403 7.40156 4.32644 7.40156 5.4655C7.40156 6.59988 6.47813 7.528 5.33906 7.528ZM20.4516 20.5452H16.8937V14.9764C16.8937 13.6499 16.8703 11.9389 15.0422 11.9389C13.1906 11.9389 12.9094 13.3874 12.9094 14.8827V20.5452H9.35625V9.08894H12.7687V10.6546H12.8156C13.2891 9.75457 14.4516 8.803 16.1813 8.803C19.7859 8.803 20.4516 11.1749 20.4516 14.2593V20.5452V20.5452Z" fill="white"/>
</g>
<defs>
<clipPath id="clip0_41_710">
<rect width="24" height="24" fill="white" transform="translate(0 0.0936279)"/>
</clipPath>
</defs>
</svg>
